<?xml version="1.0" encoding="UTF-8"?>
<svg width="80px" height="80px" viewBox="0 0 80 80" version="1.1" xmlns="http://www.w3.org/2000/svg" xmlns:xlink="http://www.w3.org/1999/xlink">
    <!-- Generator: Sketch 50.2 (55047) - http://www.bohemiancoding.com/sketch -->
    <title>AR</title>
    <desc>Created with Sketch.</desc>
    <defs></defs>
    <g id="Page-1" stroke="none" stroke-width="1" fill="none" fill-rule="evenodd">
        <g id="Landing" transform="translate(-346.000000, -2299.000000)">
            <g id="block-4" transform="translate(0.000000, 1922.000000)">
                <g id="icons">
                    <g transform="translate(346.000000, 168.000000)" id="AR">
                        <g transform="translate(0.000000, 209.000000)">
                            <path d="M40,80 C62.09139,80 80,62.09139 80,40 C80,17.90861 62.09139,0 40,0 C17.90861,0 0,17.90861 0,40 C0,62.09139 17.90861,80 40,80 Z" id="Oval" fill="#E8E9EB"></path>
                            <g transform="translate(18.000000, 22.000000)">
                                <circle id="Oval-10" fill="#D6A64B" cx="10.4485711" cy="11.3192853" r="8.70714256"></circle>
                                <path d="M11.6906136,6.41189225 C11.3303789,6.41189225 11.11804,6.59666699 10.9886787,6.95680662 C10.5362467,8.24053477 10.1113789,9.71825737 9.64963218,11.020425 L8.28283145,6.94777699 C8.1627849,6.58754231 7.91328199,6.40286263 7.54392263,6.40286263 C7.05442167,6.40286263 6.80510885,6.65227049 6.80510885,7.1416764 C6.80510885,7.23396872 6.8235483,7.33557581 6.85120748,7.4371829 L8.80921131,12.867602 C8.98467127,13.3571029 9.26173832,13.6064157 9.64041246,13.6064157 C10.0468408,13.6064157 10.3422523,13.3385684 10.5362467,12.7936541 L12.4295224,7.45552731 C12.4664013,7.3815794 12.4941555,7.28006735 12.4941555,7.18767999 C12.4941555,6.79047135 12.0692877,6.41189225 11.6906136,6.41189225 Z" id="Shape" fill="#25262C" fill-rule="nonzero"></path>
                                <path d="M16.936448,10.4662909 C17.6844815,9.98600964 18.0261817,9.27485504 18.0261817,8.57301522 C18.0261817,7.47396676 17.1674164,6.42111198 15.6157459,6.42111198 L13.7778837,6.42111198 C13.1775559,6.42111198 12.8636099,6.66120507 12.8636099,7.18767999 L12.8635149,7.18767999 L12.8635149,12.7936541 C12.8635149,13.3385684 13.1129227,13.6064157 13.6116434,13.6064157 C14.1011444,13.6064157 14.3412375,13.3385684 14.3412375,12.7936541 L14.3412375,10.844965 L15.4125317,10.844965 L16.5762133,13.2092071 C16.7424535,13.5324678 16.9918614,13.6155404 17.2503939,13.6155404 C17.7306752,13.6155404 17.9523288,13.3199389 17.9523288,12.9043858 C17.9523288,12.7474604 17.8969154,12.5812202 17.8322823,12.4241997 L16.936448,10.4662909 Z M15.6804741,9.37646213 L14.3413325,9.37646213 L14.3413325,7.89883458 L15.6804741,7.89883458 C16.2622674,7.89883458 16.5116752,8.23131504 16.5116752,8.57301522 C16.5116752,8.96090909 16.1976342,9.37646213 15.6804741,9.37646213 Z" id="Shape" fill="#25262C" fill-rule="nonzero"></path>
                                <path d="M48.64632,25.8243597 L47.8533285,20.5759589 C47.7293849,19.7555933 47.037145,19.160113 46.2074647,19.160113 L43.8023516,19.160113 C42.9090837,17.018285 40.8610687,15.4899964 38.4576665,15.3297443 C38.357105,15.3229958 38.2565434,15.3163424 38.1558868,15.3095939 C32.9981625,14.9657076 27.6302855,14.1519955 22.4671435,14.496262 C22.2979567,14.5075728 22.128865,14.5187885 21.9596783,14.5300993 C22.5320618,13.2505533 22.8511403,11.833947 22.8511403,10.3439632 C22.8511403,4.67126487 18.2360493,0.0561737992 12.563446,0.0561737992 C8.6644521,0.0561737992 5.14641347,2.21796211 3.382214,5.69798125 C3.20361743,6.05032689 3.3443846,6.48080258 3.69682529,6.65939915 C4.04907588,6.83799571 4.47964663,6.69722854 4.65824319,6.34478785 C6.17740704,3.3482816 9.20641996,1.48675223 12.563446,1.48675223 C17.4472399,1.48675223 21.4205619,5.45997923 21.4205619,10.3438681 C21.4205619,11.9019069 21.0157494,13.366988 20.3064007,14.6402608 C16.8593635,14.8700886 13.4122312,15.0998214 9.96519396,15.3296492 C8.6347969,15.4183297 7.41380091,15.9271255 6.43669997,16.7262002 C4.89919172,15.2522796 3.88540197,13.2310683 3.72800128,10.9682432 C3.70053219,10.5740761 3.35883201,10.2770488 2.96475998,10.3043278 C2.57068794,10.3317969 2.27337552,10.673402 2.3008446,11.0675691 C2.47801543,13.6156355 3.58951528,15.9862458 5.43346063,17.7592848 C5.10544747,18.1857685 4.83085169,18.6556894 4.62050885,19.160113 L2.45757995,19.160113 C1.62789959,19.160113 0.935754744,19.7555933 0.811716151,20.5759589 L0.0187245997,25.8243597 C-0.0537025323,26.3043557 0.0862091978,26.79053 0.402816516,27.1584636 C0.719328786,27.5263973 1.17926959,27.7374054 1.6645884,27.7374054 L3.30522453,27.7374054 L2.82589378,31.5080836 C2.59996295,33.2848295 3.14953471,35.0747872 4.33346168,36.4187762 C5.51738866,37.7627652 7.22370346,38.5336104 9.01480172,38.5336104 L13.9896522,38.5336104 C15.1928741,38.5336104 16.3792723,38.3332477 17.5158651,37.9381302 L23.9629253,35.6969762 L24.459745,35.6969762 L30.9068053,37.9381302 C31.2800617,38.0679667 31.6876306,37.8706456 31.8173722,37.4973892 C31.9471137,37.1242279 31.7497925,36.7165639 31.3766312,36.5868224 L24.8154174,34.305938 C24.7398537,34.2797046 24.660488,34.2663027 24.580552,34.2663027 L23.8421184,34.2663027 C23.7621824,34.2663027 23.6827217,34.2797046 23.607253,34.305938 L17.0461342,36.5868224 C16.0609541,36.9292829 15.0326219,37.102937 13.9896522,37.102937 L9.01480172,37.102937 C7.63440902,37.102937 6.31940984,36.5088824 5.40694204,35.4730414 C4.49447423,34.4372953 4.07093709,33.0578531 4.24506636,31.6884861 L4.82571905,27.1205392 L5.8170773,20.0427355 C6.42263276,18.2189405 8.08551029,16.8887335 10.0602427,16.757091 C14.164732,16.4834457 18.2692213,16.2098005 22.3736155,15.9362502 C27.5987293,15.5878966 33.0659323,16.4040801 38.3209864,16.7543346 C38.3347685,16.7552851 38.3486456,16.7561406 38.3624277,16.757091 C40.6515813,16.9097393 42.5229957,18.6723229 42.8123241,20.9482648 L44.177604,31.688391 C44.3516382,33.0577581 43.9281961,34.4372003 43.0157283,35.4729463 C42.1032605,36.5087874 40.7882614,37.1028419 39.4078687,37.1028419 L36.3182147,37.1028419 C35.9231921,37.1028419 35.6028779,37.4231561 35.6028779,37.8181787 C35.6028779,38.2132012 35.9230971,38.5335154 36.3182147,38.5335154 L39.4080588,38.5335154 C41.199157,38.5335154 42.9054718,37.7626702 44.0893988,36.4186812 C45.2733258,35.0746921 45.8228975,33.2848295 45.5969667,31.5079885 L45.117636,27.7373104 L47.0005513,27.7373104 C47.4858701,27.7373104 47.9458109,27.5263022 48.2623232,27.1583686 C48.5788354,26.790625 48.7187472,26.3043557 48.64632,25.8243597 Z M4.19136383,20.7679573 L3.48724284,26.306827 L1.66468345,26.306827 L1.66468345,26.3069221 C1.5713456,26.3069221 1.51355597,26.2559759 1.48741757,26.2255603 C1.46127917,26.1952398 1.41945773,26.1304166 1.43342989,26.0381242 L2.22642144,20.7897235 C2.24381536,20.6744294 2.34105021,20.5907865 2.457675,20.5907865 L4.21788243,20.5907865 C4.2086627,20.6497167 4.19887268,20.7084568 4.19136383,20.7679573 Z M47.1777221,26.2255603 C47.1515837,26.2559759 47.0937941,26.3069221 47.0004562,26.3069221 L45.1699128,26.3069221 L44.3692223,20.5908816 L46.2074647,20.5908816 C46.3239944,20.5908816 46.4212293,20.6745244 46.4387182,20.7898185 L47.2317098,26.0381242 C47.245682,26.1304166 47.2038605,26.1951448 47.1777221,26.2255603 Z" id="Shape" fill="#25262C" fill-rule="nonzero"></path>
                                <path d="M26.8447078,19.160113 L20.8397191,19.160113 C20.4446016,19.160113 20.1243824,19.4803322 20.1243824,19.8754498 C20.1243824,20.2705673 20.4446966,20.5907865 20.8397191,20.5907865 L26.8447078,20.5907865 C27.2397303,20.5907865 27.5600445,20.2705673 27.5600445,19.8754498 C27.5600445,19.4803322 27.2397303,19.160113 26.8447078,19.160113 Z" id="Shape" fill="#25262C" fill-rule="nonzero"></path>
                                <path d="M36.2793397,23.6376686 C36.0228032,23.3373146 35.5712267,23.3017664 35.2708727,23.5583979 L31.8101485,26.5143184 C31.5097945,26.7708549 31.4742462,27.2224314 31.7308778,27.5227854 C31.8724054,27.6884553 32.0731483,27.773524 32.2751268,27.773524 C32.4394661,27.773524 32.6046608,27.7171601 32.7393448,27.602056 L36.2000691,24.6461356 C36.5004231,24.3895991 36.5359713,23.9380226 36.2793397,23.6376686 Z" id="Shape" fill="#25262C" fill-rule="nonzero"></path>
                                <path d="M39.9086804,25.011693 C39.6521439,24.711339 39.2006624,24.6757908 38.9002134,24.9324224 L30.2570522,32.3151424 C29.9566982,32.5716789 29.92115,33.0232554 30.1777816,33.3236094 C30.3193091,33.4892793 30.520052,33.5743479 30.7220306,33.5743479 C30.8863699,33.5743479 31.0515645,33.517984 31.1862486,33.40288 L39.8294098,26.02016 C40.1297638,25.7636235 40.165312,25.312047 39.9086804,25.011693 Z" id="Shape" fill="#25262C" fill-rule="nonzero"></path>
                                <path d="M14.8375819,23.6376686 C14.5810454,23.3373146 14.129564,23.3017664 13.8291149,23.5583979 L10.3684857,26.5143184 C10.0681317,26.7708549 10.0325835,27.2224314 10.2892151,27.5227854 C10.4307426,27.6884553 10.6314856,27.773524 10.8334641,27.773524 C10.9978034,27.773524 11.1629981,27.7171601 11.2976821,27.602056 L14.7583113,24.6461356 C15.0586653,24.3895991 15.0942135,23.9380226 14.8375819,23.6376686 Z" id="Shape" fill="#25262C" fill-rule="nonzero"></path>
                                <path d="M18.4670177,25.011693 C18.2104812,24.711339 17.7589047,24.6757908 17.4585507,24.9324224 L8.81538948,32.3151424 C8.5150355,32.5716789 8.47948727,33.0232554 8.73611884,33.3236094 C8.8776464,33.4892793 9.07838932,33.5743479 9.28036787,33.5743479 C9.44470712,33.5743479 9.60990181,33.517984 9.74458586,33.40288 L18.387747,26.02016 C18.688101,25.7636235 18.7236493,25.312047 18.4670177,25.011693 Z" id="Shape" fill="#25262C" fill-rule="nonzero"></path>
                            </g>
                        </g>
                    </g>
                </g>
            </g>
        </g>
    </g>
</svg>