<?xml version="1.0" encoding="UTF-8"?>
<svg width="80px" height="80px" viewBox="0 0 80 80" version="1.1" xmlns="http://www.w3.org/2000/svg" xmlns:xlink="http://www.w3.org/1999/xlink">
    <!-- Generator: Sketch 50.2 (55047) - http://www.bohemiancoding.com/sketch -->
    <title>desk-computer</title>
    <desc>Created with Sketch.</desc>
    <defs></defs>
    <g id="Page-1" stroke="none" stroke-width="1" fill="none" fill-rule="evenodd">
        <g id="Landing" transform="translate(-452.000000, -2498.000000)">
            <g id="block-4" transform="translate(0.000000, 1922.000000)">
                <g id="icons">
                    <g transform="translate(346.000000, 168.000000)" id="desk-computer">
                        <g transform="translate(106.000000, 408.000000)">
                            <path d="M40,80 C62.09139,80 80,62.09139 80,40 C80,17.90861 62.09139,0 40,0 C17.90861,0 0,17.90861 0,40 C0,62.09139 17.90861,80 40,80 Z" id="Oval-5-Copy-9" fill="#E8E9EB"></path>
                            <g transform="translate(17.000000, 25.000000)">
                                <path d="M30.869543,6.45857227 L2.56723242,6.45857227 C1.15168359,6.45857227 0,7.61025586 0,9.02580469 L0,27.0007148 C0,28.4162637 1.15168359,29.5679473 2.56723242,29.5679473 L11.914875,29.5679473 L11.914875,31.9585723 L11.1241758,31.9585723 C10.6841016,31.9585723 10.3273008,32.315373 10.3273008,32.7554473 C10.3273008,33.1955215 10.6841016,33.5523223 11.1241758,33.5523223 L22.3361074,33.5523223 C22.7761816,33.5523223 23.1329824,33.1955215 23.1329824,32.7554473 C23.1329824,32.315373 22.7761816,31.9585723 22.3361074,31.9585723 L21.4662187,31.9585723 L21.4662187,29.5679473 L30.8694434,29.5679473 C32.2849922,29.5679473 33.4366758,28.4162637 33.4366758,27.0007148 L33.4366758,9.02580469 C33.4367754,7.61025586 32.2850918,6.45857227 30.869543,6.45857227 Z M19.8724687,31.9585723 L13.508625,31.9585723 L13.508625,29.5679473 L19.8724687,29.5679473 L19.8724687,31.9585723 Z M31.8430254,27.0007148 C31.8430254,27.5375098 31.4063379,27.9741973 30.869543,27.9741973 L2.56723242,27.9741973 C2.0304375,27.9741973 1.59375,27.5375098 1.59375,27.0007148 L1.59375,9.02580469 C1.59375,8.48900977 2.0304375,8.05232227 2.56723242,8.05232227 L30.869543,8.05232227 C31.4063379,8.05232227 31.8430254,8.48900977 31.8430254,9.02580469 L31.8430254,27.0007148 Z" id="Shape" fill="#25262C" fill-rule="nonzero"></path>
                                <polygon id="Path" stroke="#25262C" stroke-width="1.5" fill="#D6A64B" points="29.4524004 25.5835723 3.95240039 25.5835723 3.95240039 10.4429473 29.4524004 10.4429473"></polygon>
                                <path d="M48.5696309,0.0835722656 L37.4288203,0.0835722656 C36.1064062,0.0835722656 35.0304258,1.15945313 35.0304258,2.4819668 L35.0304258,32.7554473 C35.0304258,33.1955215 35.3872266,33.5523223 35.8273008,33.5523223 C36.267375,33.5523223 36.6241758,33.1955215 36.6241758,32.7554473 L36.6241758,31.9585723 L49.3741758,31.9585723 L49.3741758,32.7554473 C49.3741758,33.1955215 49.7309766,33.5523223 50.1710508,33.5523223 C50.611125,33.5523223 50.9679258,33.1955215 50.9679258,32.7554473 L50.9679258,2.4819668 C50.9680254,1.15955273 49.8920449,0.0835722656 48.5696309,0.0835722656 Z M36.6242754,30.3648223 L36.6242754,2.4819668 C36.6242754,2.03830664 36.9852598,1.67732227 37.4289199,1.67732227 L48.5697305,1.67732227 C49.0133906,1.67732227 49.374375,2.03830664 49.374375,2.4819668 L49.374375,30.3648223 L36.6242754,30.3648223 Z" id="Shape" fill="#25262C" fill-rule="nonzero"></path>
                                <polygon id="Shape" fill="#D6A64B" fill-rule="nonzero" points="46.9836504 6.45857227 39.0149004 6.45857227 39.0149004 4.86482227 46.9836504 4.86482227"></polygon>
                                <polygon id="Shape" fill="#D6A64B" fill-rule="nonzero" points="46.9836504 11.2398223 39.0149004 11.2398223 39.0149004 9.64607227 46.9836504 9.64607227"></polygon>
                                <path d="M44.5930254,20.0054473 C44.1529512,20.0054473 43.7961504,20.362248 43.7961504,20.8023223 C43.7961504,21.2416992 43.4386523,21.5991973 42.9992754,21.5991973 C42.5598984,21.5991973 42.2024004,21.2416992 42.2024004,20.8023223 C42.2024004,20.3629453 42.5598984,20.0054473 42.9992754,20.0054473 C43.4393496,20.0054473 43.7961504,19.6486465 43.7961504,19.2085723 C43.7961504,18.768498 43.4393496,18.4116973 42.9992754,18.4116973 C41.6810449,18.4116973 40.6086504,19.4840918 40.6086504,20.8023223 C40.6086504,22.1205527 41.6810449,23.1929473 42.9992754,23.1929473 C44.3175059,23.1929473 45.3899004,22.1205527 45.3899004,20.8023223 C45.3899004,20.362248 45.0330996,20.0054473 44.5930254,20.0054473 Z" id="Shape" fill="#25262C" fill-rule="nonzero"></path>
                                <path d="M42.9992754,23.9898223 C42.1205215,23.9898223 41.4055254,24.7048184 41.4055254,25.5835723 C41.4055254,26.4623262 42.1205215,27.1773223 42.9992754,27.1773223 C43.8780293,27.1773223 44.5930254,26.4623262 44.5930254,25.5835723 C44.5930254,24.7048184 43.8780293,23.9898223 42.9992754,23.9898223 Z" id="Shape" fill="#25262C" fill-rule="nonzero"></path>
                            </g>
                        </g>
                    </g>
                </g>
            </g>
        </g>
    </g>
</svg>