<?xml version="1.0" encoding="UTF-8"?>
<svg width="80px" height="80px" viewBox="0 0 80 80" version="1.1" xmlns="http://www.w3.org/2000/svg" xmlns:xlink="http://www.w3.org/1999/xlink">
    <!-- Generator: Sketch 50.2 (55047) - http://www.bohemiancoding.com/sketch -->
    <title>gamepad</title>
    <desc>Created with Sketch.</desc>
    <defs></defs>
    <g id="Page-1" stroke="none" stroke-width="1" fill="none" fill-rule="evenodd">
        <g id="Landing" transform="translate(-578.000000, -2532.000000)">
            <g id="block-4" transform="translate(0.000000, 1922.000000)">
                <g id="icons">
                    <g transform="translate(346.000000, 168.000000)" id="gamepad">
                        <g transform="translate(232.000000, 442.000000)">
                            <path d="M40,80 C62.09139,80 80,62.09139 80,40 C80,17.90861 62.09139,0 40,0 C17.90861,0 0,17.90861 0,40 C0,62.09139 17.90861,80 40,80 Z" id="Oval" fill="#E8E9EB"></path>
                            <g transform="translate(18.000000, 18.000000)">
                                <circle id="Oval-11" fill="#D6A64B" cx="38.5714286" cy="28.2857143" r="7.71428571"></circle>
                                <path d="M37.5616875,2.0030625 C37.3100625,1.7083125 36.8671875,1.6738125 36.572625,1.92525 L28.0955625,9.166125 C27.801,9.41784375 27.766125,9.860625 28.01775,10.1552812 C28.1565,10.31775 28.353375,10.4011875 28.5514687,10.4011875 C28.712625,10.4011875 28.874625,10.3459688 29.0068125,10.2330937 L37.483875,2.99221875 C37.7784375,2.7405 37.8133125,2.29771875 37.5616875,2.0030625 Z" id="Shape" fill="#25262C" fill-rule="nonzero"></path>
                                <path d="M14.2269375,3.92878125 C13.9753125,3.634125 13.5325313,3.599625 13.237875,3.85096875 L9.84375,6.75009375 C9.5491875,7.0018125 9.5143125,7.44459375 9.7659375,7.73925 C9.9046875,7.90171875 10.1015625,7.98515625 10.2996563,7.98515625 C10.4608125,7.98515625 10.6228125,7.9299375 10.755,7.8170625 L14.149125,4.9179375 C14.4436875,4.66621875 14.4785625,4.2234375 14.2269375,3.92878125 Z" id="Shape" fill="#25262C" fill-rule="nonzero"></path>
                                <path d="M47.988,43.9900313 L46.5646875,26.2864688 C46.549125,20.4899063 41.828625,15.778875 36.0285,15.778875 C33.6640313,15.778875 31.4296875,16.5445313 29.5669688,17.9929687 C29.54775,18.007875 29.5279688,18.0218437 29.5085625,18.0364688 L29.5085625,14.7710625 L38.7561563,14.7710625 C39.400875,14.7710625 39.9254063,14.2465313 39.9254063,13.6018125 L39.9254063,1.24003125 C39.9254063,0.5953125 39.400875,0.07078125 38.7561563,0.07078125 L28.30575,0.07078125 C27.9182813,0.07078125 27.6042188,0.38484375 27.6042188,0.7723125 C27.6042188,1.15978125 27.918375,1.47384375 28.30575,1.47384375 L31.9635938,1.47384375 L29.6188125,3.47671875 C29.32425,3.7284375 29.289375,4.17121875 29.541,4.465875 C29.67975,4.6284375 29.876625,4.71178125 30.0747188,4.71178125 C30.235875,4.71178125 30.397875,4.65646875 30.5300625,4.5436875 L33.9241875,1.64446875 C33.982875,1.59440625 34.0307813,1.53646875 34.0686563,1.47384375 L38.5223438,1.47384375 L38.5223438,13.3678125 L9.47775,13.3678125 L9.47775,13.296375 L17.7089063,6.26559375 C18.0034688,6.01396875 18.0383438,5.57109375 17.7867188,5.2764375 C17.5350938,4.9816875 17.0922188,4.9471875 16.7976563,5.198625 L9.47784375,11.451 L9.47784375,1.47384375 L23.3702813,1.47384375 C23.75775,1.47384375 24.0718125,1.15978125 24.0718125,0.7723125 C24.0718125,0.38484375 23.75775,0.07078125 23.3702813,0.07078125 L9.24384375,0.07078125 C8.599125,0.07078125 8.07459375,0.5953125 8.07459375,1.24003125 L8.07459375,13.6017188 C8.07459375,14.2464375 8.599125,14.7709688 9.24384375,14.7709688 L18.4914375,14.7709688 L18.4914375,18.036375 C18.4720313,18.02175 18.4521563,18.0077813 18.4330313,17.992875 C16.5702188,16.5444375 14.3359688,15.7787813 11.9715,15.7787813 C7.740375,15.7787813 3.9343125,18.2940938 2.2749375,22.186875 C2.1230625,22.5432188 2.2888125,22.9554375 2.64525,23.1073125 C3.00178125,23.259375 3.4138125,23.0934375 3.56578125,22.7370938 C5.0041875,19.3625625 8.303625,17.1820313 11.9715938,17.1820313 C14.0211563,17.1820313 15.9576563,17.8455 17.5718438,19.100625 C18.6091875,19.90725 19.9003125,20.3515313 21.207375,20.3515313 L26.7928125,20.3515313 C28.099875,20.3515313 29.391,19.90725 30.4283438,19.100625 C32.0425313,17.8455 33.9790313,17.1820313 36.0285938,17.1820313 C41.0645625,17.1820313 45.161625,21.2790938 45.161625,26.3150625 C45.161625,26.3338125 45.162375,26.3525625 45.163875,26.3712188 L46.5894375,44.1025313 C46.659,44.9674688 46.257,45.7515937 45.514125,46.2000938 C44.7809063,46.6426875 43.9129688,46.639125 43.18575,46.1925 L33.5645625,38.6079375 C32.5035,37.7715 31.1751563,37.3108125 29.824125,37.3108125 L18.175875,37.3108125 C16.8248438,37.3108125 15.4965,37.7715 14.4354375,38.6079375 L4.81434375,46.1925 C4.087125,46.6392188 3.21928125,46.6426875 2.48596875,46.2000938 C1.74309375,45.7515938 1.34109375,44.9674688 1.41065625,44.1024375 L2.7495,27.4487813 C2.78053125,27.062625 2.492625,26.724375 2.106375,26.6933438 C1.720125,26.6618438 1.38196875,26.950125 1.35084375,27.3364688 L0.012,43.9900313 C-0.099375,45.3756563 0.57065625,46.6828125 1.7608125,47.4012188 C2.34421875,47.7534375 2.9945625,47.9292188 3.6444375,47.9292188 C4.3201875,47.9292188 4.995375,47.7390938 5.59396875,47.359875 C5.6143125,47.3470313 5.634,47.3330625 5.65284375,47.3181563 L15.3042188,39.7097813 C16.1188125,39.0675938 17.1387188,38.7139688 18.1759688,38.7139688 L29.824125,38.7139688 C30.861375,38.7139688 31.8812813,39.0675938 32.695875,39.7097813 L42.34725,47.3181563 C42.3660938,47.3330625 42.3857813,47.3470313 42.406125,47.359875 C43.5804375,48.103875 45.049125,48.1195313 46.2392813,47.401125 C47.4293438,46.6828125 48.099375,45.3756563 47.988,43.9900313 Z M28.1054063,18.7502813 C27.6809063,18.880125 27.2380313,18.948375 26.7927188,18.948375 L21.2072813,18.948375 C20.7619688,18.948375 20.3191875,18.8802188 19.8946875,18.7502813 L19.8946875,14.7709687 L28.1054063,14.7709687 L28.1054063,18.7502813 Z" id="Shape" fill="#25262C" fill-rule="nonzero"></path>
                                <path d="M15.5515313,24.34125 L14.7718125,24.34125 L14.7718125,23.5615313 C14.7718125,22.5684375 13.963875,21.7605 12.9707813,21.7605 L10.9245,21.7605 C9.93140625,21.7605 9.123375,22.5684375 9.123375,23.5615313 L9.123375,24.34125 L8.34365625,24.34125 C7.3505625,24.34125 6.542625,25.1492813 6.542625,26.1422813 L6.542625,28.1885625 C6.542625,29.1816563 7.3505625,29.9895938 8.34365625,29.9895938 L9.123375,29.9895938 L9.123375,30.7693125 C9.123375,31.7624063 9.93140625,32.5703438 10.9245,32.5703438 L12.9707813,32.5703438 C13.963875,32.5703438 14.7718125,31.7623125 14.7718125,30.7693125 L14.7718125,29.9895938 L15.5515313,29.9895938 C16.544625,29.9895938 17.3525625,29.1815625 17.3525625,28.1885625 L17.3525625,26.1422813 C17.3525625,25.1491875 16.544625,24.34125 15.5515313,24.34125 Z M15.9495,28.1885625 C15.9495,28.4042813 15.76725,28.5865313 15.5515313,28.5865313 L14.0702813,28.5865313 C13.6828125,28.5865313 13.36875,28.9005938 13.36875,29.2880625 L13.36875,30.7694063 C13.36875,30.985125 13.1865,31.167375 12.9707813,31.167375 L10.9245,31.167375 C10.7087813,31.167375 10.5265313,30.985125 10.5265313,30.7694063 L10.5265313,29.2880625 C10.5265313,28.9005938 10.2124688,28.5865313 9.825,28.5865313 L8.34375,28.5865313 C8.12803125,28.5864375 7.94578125,28.4042813 7.94578125,28.1885625 L7.94578125,26.1422813 C7.94578125,25.9266563 8.12803125,25.7444063 8.34375,25.7444063 L9.825,25.7444063 C10.2124688,25.7444063 10.5265313,25.4303437 10.5265313,25.042875 L10.5265313,23.561625 C10.5265313,23.3459062 10.7087813,23.16375 10.9245,23.16375 L12.9707813,23.16375 C13.1865,23.16375 13.36875,23.346 13.36875,23.561625 L13.36875,25.042875 C13.36875,25.4304375 13.6828125,25.7444063 14.0702813,25.7444063 L15.5515313,25.7444063 C15.76725,25.7444063 15.9495,25.9266563 15.9495,26.1422813 L15.9495,28.1885625 Z" id="Shape" fill="#25262C" fill-rule="nonzero"></path>
                                <path d="M12.97575,24.4628438 L12.4685625,23.9007187 C12.3355312,23.75325 12.14625,23.6691563 11.9476875,23.6691563 C11.749125,23.6691563 11.5598437,23.75325 11.4268125,23.9007187 L10.919625,24.4628438 C10.6599375,24.7504687 10.6827187,25.1941875 10.9703437,25.4536875 C11.2530937,25.7085938 11.6863125,25.6910625 11.9475937,25.4175 C12.0848437,25.5613125 12.2695312,25.6343437 12.4550625,25.6343437 C12.6225937,25.6343437 12.7906875,25.5747187 12.9248437,25.4536875 C13.2124687,25.1941875 13.23525,24.7504687 12.97575,24.4628438 Z" id="Shape" fill="#25262C" fill-rule="nonzero"></path>
                                <path d="M12.9248437,28.87725 C12.6421875,28.62225 12.208875,28.6397812 11.9475937,28.9134375 C11.6864062,28.6397812 11.2530937,28.62225 10.9703437,28.87725 C10.6827187,29.1368437 10.6599375,29.5804687 10.9195312,29.8680937 L11.4267187,30.430125 C11.55975,30.5775937 11.7490312,30.6616875 11.9475937,30.6616875 C12.1461562,30.6616875 12.3354375,30.5775938 12.4684687,30.430125 L12.9756562,29.8680937 C13.23525,29.5804687 13.2124687,29.1368437 12.9248437,28.87725 Z" id="Shape" fill="#25262C" fill-rule="nonzero"></path>
                                <path d="M15.21225,26.6445938 L14.650125,26.1374063 C14.3624062,25.8778125 13.9187812,25.9006875 13.6592812,26.1883125 C13.4041875,26.4710625 13.4218125,26.9041875 13.695375,27.1654688 C13.4219062,27.4266563 13.4042812,27.859875 13.659375,28.142625 C13.7979375,28.2960938 13.9888125,28.3741875 14.1804375,28.3741875 C14.3479687,28.3741875 14.5159687,28.3145625 14.650125,28.1935313 L15.21225,27.6863438 C15.3597187,27.5533125 15.4439062,27.3640313 15.4439062,27.1654688 C15.4439062,26.9669063 15.3597187,26.777625 15.21225,26.6445938 Z" id="Shape" fill="#25262C" fill-rule="nonzero"></path>
                                <path d="M10.2357188,26.1882187 C9.97621875,25.9007812 9.53259375,25.8778125 9.244875,26.1373125 L8.68275,26.6445 C8.53528125,26.7775312 8.45109375,26.9668125 8.45109375,27.165375 C8.45109375,27.3639375 8.53528125,27.5532187 8.68275,27.68625 L9.24496875,28.1934375 C9.379125,28.3144687 9.54721875,28.3740937 9.71465625,28.3740937 C9.906375,28.3740937 10.09725,28.296 10.2357188,28.1425312 C10.4908125,27.8597812 10.4731875,27.4266562 10.199625,27.165375 C10.4731875,26.9040937 10.4908125,26.4709687 10.2357188,26.1882187 Z" id="Shape" fill="#25262C" fill-rule="nonzero"></path>
                                <path d="M32.8395,25.0876875 C31.6937813,25.0876875 30.7617188,26.01975 30.7617188,27.1654688 C30.7617188,28.3111875 31.6937813,29.2433438 32.8395,29.2433438 C33.9852188,29.24325 34.9172813,28.3110938 34.9172813,27.1654688 C34.9172813,26.01975 33.9852188,25.0876875 32.8395,25.0876875 Z M32.8395,27.8401875 C32.4675,27.8401875 32.164875,27.5374688 32.164875,27.1654688 C32.164875,26.7934688 32.4675,26.4908437 32.8395,26.4908437 C33.2115,26.4908437 33.514125,26.7934688 33.514125,27.1654688 C33.514125,27.5375625 33.2115,27.8401875 32.8395,27.8401875 Z" id="Shape" fill="#25262C" fill-rule="nonzero"></path>
                                <path d="M39.2652188,25.0876875 C38.1195,25.0876875 37.1874375,26.0196563 37.1874375,27.1654688 C37.1874375,28.3111875 38.1195,29.2433438 39.2652188,29.2433438 C40.4109375,29.2433438 41.343,28.3111875 41.343,27.1654688 C41.343,26.01975 40.4109375,25.0876875 39.2652188,25.0876875 Z M39.2653125,27.8401875 C38.8933125,27.8401875 38.5906875,27.5375625 38.5906875,27.1654688 C38.5905938,26.7934688 38.8932188,26.4908437 39.2653125,26.4908437 C39.6373125,26.4908437 39.9399375,26.7934688 39.9399375,27.1654688 C39.9399375,27.5375625 39.6373125,27.8401875 39.2653125,27.8401875 Z" id="Shape" fill="#25262C" fill-rule="nonzero"></path>
                                <path d="M36.0524062,21.49275 C34.9066875,21.49275 33.974625,22.4248125 33.974625,23.5705313 C33.974625,24.7163438 34.9066875,25.6484063 36.0524062,25.6484063 C37.198125,25.6484063 38.1301875,24.71625 38.1301875,23.5705313 C38.1301875,22.4248125 37.198125,21.49275 36.0524062,21.49275 Z M36.0524062,24.2453438 C35.6804062,24.2453438 35.3777812,23.9427188 35.3777812,23.570625 C35.3776875,23.198625 35.6804062,22.896 36.0524062,22.896 C36.4244062,22.896 36.7270312,23.198625 36.7270312,23.570625 C36.7270312,23.9427188 36.4244062,24.2453438 36.0524062,24.2453438 Z" id="Shape" fill="#25262C" fill-rule="nonzero"></path>
                                <path d="M36.0524062,28.6824375 C34.9066875,28.6824375 33.974625,29.6145 33.974625,30.7602187 C33.974625,31.9059375 34.9066875,32.8380937 36.0524062,32.8380937 C37.198125,32.8380937 38.1301875,31.9059375 38.1301875,30.7602187 C38.1301875,29.6145 37.198125,28.6824375 36.0524062,28.6824375 Z M36.0524062,31.4349375 C35.6804062,31.4349375 35.3777812,31.1323125 35.3777812,30.7602187 C35.3777812,30.3882187 35.6804062,30.0855937 36.0524062,30.0855937 C36.4244062,30.0855937 36.7270312,30.3882187 36.7270312,30.7602187 C36.7270312,31.1323125 36.4244062,31.4349375 36.0524062,31.4349375 Z" id="Shape" fill="#25262C" fill-rule="nonzero"></path>
                                <path d="M11.9475938,19.5654375 C7.75696875,19.5654375 4.3475625,22.9748438 4.3475625,27.1654687 C4.3475625,31.3560937 7.75696875,34.7655 11.9475938,34.7655 C16.1382188,34.7655 19.547625,31.3560937 19.547625,27.1654687 C19.547625,22.9748438 16.1382188,19.5654375 11.9475938,19.5654375 Z M11.9475938,33.3624375 C8.5306875,33.3624375 5.75071875,30.5824688 5.75071875,27.1654688 C5.75071875,23.7484688 8.5306875,20.9685938 11.9475938,20.9685938 C15.3645938,20.9685938 18.1444688,23.7484688 18.1444688,27.1654688 C18.1444688,30.582375 15.3645,33.3624375 11.9475938,33.3624375 Z" id="Shape" fill="#25262C" fill-rule="nonzero"></path>
                                <path d="M36.0524063,19.5654375 C31.8617813,19.5654375 28.452375,22.9748438 28.452375,27.1654687 C28.452375,31.3560937 31.8617813,34.7655 36.0524063,34.7655 C40.2430313,34.7655 43.6524375,31.3560937 43.6524375,27.1654687 C43.6524375,22.9748438 40.2430313,19.5654375 36.0524063,19.5654375 Z M36.0524063,33.3624375 C32.6354063,33.3624375 29.8555313,30.5824688 29.8555313,27.1654688 C29.8555313,23.7484688 32.6354063,20.9685938 36.0524063,20.9685938 C39.4694063,20.9685938 42.2492813,23.7484688 42.2492813,27.1654688 C42.2492813,30.582375 39.4693125,33.3624375 36.0524063,33.3624375 Z" id="Shape" fill="#25262C" fill-rule="nonzero"></path>
                                <path d="M24.8278125,26.4638437 L23.1721875,26.4638437 C22.2437812,26.4638437 21.4884375,27.2191875 21.4884375,28.1475937 C21.4884375,29.076 22.2437812,29.8313437 23.1721875,29.8313437 L24.8278125,29.8313437 C25.7562187,29.8313437 26.5115625,29.076 26.5115625,28.1475937 C26.5115625,27.2191875 25.7562187,26.4638437 24.8278125,26.4638437 Z M24.8278125,28.4281875 L23.1721875,28.4281875 C23.020125,28.4282812 22.8915937,28.29975 22.8915937,28.1475937 C22.8915937,27.9955312 23.020125,27.867 23.1721875,27.867 L24.8278125,27.867 C24.979875,27.867 25.1084062,27.9955312 25.1084062,28.1475937 C25.1084062,28.29975 24.979875,28.4281875 24.8278125,28.4281875 Z" id="Shape" fill="#25262C" fill-rule="nonzero"></path>
                            </g>
                        </g>
                    </g>
                </g>
            </g>
        </g>
    </g>
</svg>