<?xml version="1.0" encoding="UTF-8"?>
<svg width="80px" height="80px" viewBox="0 0 80 80" version="1.1" xmlns="http://www.w3.org/2000/svg" xmlns:xlink="http://www.w3.org/1999/xlink">
    <!-- Generator: Sketch 50.2 (55047) - http://www.bohemiancoding.com/sketch -->
    <title>ipad</title>
    <desc>Created with Sketch.</desc>
    <defs></defs>
    <g id="Page-1" stroke="none" stroke-width="1" fill="none" fill-rule="evenodd">
        <g id="Landing" transform="translate(-376.000000, -2412.000000)">
            <g id="block-4" transform="translate(0.000000, 1922.000000)">
                <g id="icons">
                    <g transform="translate(346.000000, 168.000000)" id="ipad">
                        <g transform="translate(30.000000, 322.000000)">
                            <path d="M40,80 C62.09139,80 80,62.09139 80,40 C80,17.90861 62.09139,0 40,0 C17.90861,0 0,17.90861 0,40 C0,62.09139 17.90861,80 40,80 Z" id="Oval" fill="#E8E9EB"></path>
                            <g transform="translate(25.000000, 19.000000)">
                                <path d="M17.5722695,1.99498047 L15.4904102,1.99498047 C15.1170195,1.99498047 14.8144258,2.29766406 14.8144258,2.67096484 C14.8144258,3.04426562 15.1170195,3.34694922 15.4904102,3.34694922 L17.5722695,3.34694922 C17.9456602,3.34694922 18.2482539,3.04426562 18.2482539,2.67096484 C18.2482539,2.29766406 17.9456602,1.99498047 17.5722695,1.99498047 Z" id="Shape" fill="#25262C" fill-rule="nonzero"></path>
                                <path d="M29.4341602,0 L3.62851953,0 C1.66543359,0 0.0683710937,1.5970625 0.0683710937,3.56005859 L0.0683710937,4.54519531 L0.0683710937,33.3133438 L0.0683710937,35.9410039 C0.0683710937,37.9040898 1.66543359,39.5011523 3.62842969,39.5011523 L6.57207031,39.5011523 C6.94546094,39.5011523 7.24805469,39.1984687 7.24805469,38.825168 C7.24805469,38.4518672 6.94546094,38.1491836 6.57207031,38.1491836 L3.62842969,38.1491836 C2.41077734,38.1491836 1.42025,37.1585664 1.42025,35.9410039 L1.42025,33.9892383 L13.9188633,33.9892383 C14.3381641,34.7804023 14.7155977,35.6146016 15.0479297,36.4894102 C15.2728086,37.0813906 15.5756719,37.6380625 15.9452891,38.1491836 L11.2587695,38.1491836 C10.8853789,38.1491836 10.5827852,38.4518672 10.5827852,38.825168 C10.5827852,39.1984687 10.8853789,39.5011523 11.2587695,39.5011523 L17.2075039,39.5011523 C17.5199805,39.762418 17.8552773,40.0009531 18.2115977,40.2131641 L17.8325469,45.2735234 C17.8185312,45.4610273 17.8832188,45.6459258 18.0111562,45.7838359 C18.1390039,45.9216563 18.3186016,46 18.5067344,46 L26.0174922,46 C26.2055352,46 26.385043,45.9216562 26.5128906,45.7838359 C26.6408281,45.6460156 26.7056055,45.4611172 26.6915898,45.2736133 L26.3135273,40.2131641 C26.6710156,40.0002344 27.0062227,39.7616094 27.3176211,39.5011523 L29.4340703,39.5011523 C31.3970664,39.5011523 32.9941289,37.9040898 32.9941289,35.9410039 L32.9941289,33.3133438 L32.9941289,4.54528516 L32.9941289,3.56005859 C32.9943086,1.5970625 31.3971563,0 29.4341602,0 Z M28.5777695,34.0208633 C28.5777695,36.1824141 27.319957,38.1798203 25.2952383,39.2335977 C25.0555352,39.3583906 24.9131328,39.6139961 24.9332578,39.8835273 L25.2892188,44.6480312 L19.2352773,44.6480312 L19.5921367,39.883707 C19.6122617,39.6140859 19.4698594,39.3583906 19.2300664,39.2335977 C17.8690234,38.5255391 16.8326758,37.3804805 16.3117617,36.009375 C15.4657031,33.7822383 14.3441836,31.7932773 12.9781992,30.0974766 L12.7639219,29.8316289 C12.4978945,29.3585117 12.6752461,28.9130664 12.9351641,28.6502734 C13.1897813,28.3928711 13.6282188,28.2162383 14.0954063,28.4925078 C14.3432852,28.6391328 14.5315078,28.8405625 14.671125,29.1082969 C14.8149648,29.3842969 15.1289688,29.5263398 15.4311133,29.4523984 C15.7335273,29.378457 15.9462773,29.1074883 15.946457,28.7962695 L15.9520273,20.0190742 C15.9520273,19.7232187 16.0793359,19.4379648 16.3010703,19.236625 C16.5251406,19.0333086 16.8139883,18.9373555 17.1150547,18.9664648 C17.6491758,19.0183047 18.0674883,19.4981602 18.0674883,20.0590547 L18.0674883,25.9433711 L18.0674883,28.6441641 C18.0674883,29.0174648 18.370082,29.3201484 18.7434727,29.3201484 C19.1168633,29.3201484 19.419457,29.0175547 19.419457,28.6441641 L19.419457,25.9435508 C19.419457,25.9434609 19.419457,25.9433711 19.419457,25.9433711 C19.419457,25.3798711 19.9375859,24.8855508 20.5283086,24.8855508 C21.1115742,24.8855508 21.5860391,25.3600156 21.5860391,25.9432812 C21.5860391,25.9439102 21.5861289,25.9445391 21.5861289,25.9452578 L21.5861289,28.6441641 C21.5861289,29.0174648 21.8887227,29.3201484 22.2621133,29.3201484 C22.6355039,29.3201484 22.9380977,29.0175547 22.9380977,28.6441641 L22.9380977,25.9677187 C22.9383672,25.959543 22.9393555,25.9516367 22.9393555,25.9433711 C22.9393555,25.3601055 23.4138203,24.8856406 23.9970859,24.8856406 C24.5204258,24.8856406 24.963625,25.2690937 25.0422383,25.7834492 L25.0422383,27.0512344 C25.0422383,27.083668 25.045293,27.115293 25.0496953,27.1464687 L25.0496953,28.6441641 C25.0496953,29.0174648 25.3522891,29.3201484 25.7256797,29.3201484 C26.0990703,29.3201484 26.4016641,29.0175547 26.4016641,28.6441641 L26.4016641,26.9356055 C26.4611406,26.4376914 26.8986797,26.0497461 27.428668,26.0497461 L27.5433086,26.0497461 C28.1137266,26.0497461 28.5777695,26.4990547 28.5777695,27.0513242 L28.5777695,34.0208633 Z M16.7009648,14.7476719 C15.2213281,14.7476719 14.0176016,15.9513984 14.0176016,17.4310352 C14.0176016,18.1312773 14.2880312,18.7688984 14.7289844,19.2470469 C14.6449805,19.493668 14.6001484,19.7540352 14.6001484,20.0185352 L14.5998789,20.4450234 C13.648793,19.78 13.0252773,18.677168 13.0252773,17.431125 C13.0252773,15.4043398 14.6741797,13.7554375 16.7009648,13.7554375 C18.7278398,13.7554375 20.3767422,15.4043398 20.3767422,17.431125 C20.3767422,18.3837383 20.0112578,19.2517187 19.4144258,19.9051523 C19.3887305,19.476957 19.2566602,19.0781406 19.0431016,18.7370039 C19.2598945,18.3502266 19.384418,17.9051406 19.384418,17.4310352 C19.384418,15.9513984 18.1806016,14.7476719 16.7009648,14.7476719 Z M18.0324492,17.4309453 C18.0324492,17.5631953 18.0124141,17.6907734 17.9762969,17.8113437 C17.7498008,17.711707 17.5045273,17.6456719 17.2455977,17.6205156 C16.6396914,17.5620273 16.0341445,17.7369531 15.5530313,18.1028867 C15.4367734,17.9056797 15.3695703,17.6762188 15.3695703,17.4309453 C15.3695703,16.696832 15.9668516,16.0995508 16.7009648,16.0995508 C17.435168,16.0995508 18.0324492,16.696832 18.0324492,17.4309453 Z M31.6423398,35.9410937 C31.6423398,37.1586562 30.6518125,38.1492734 29.4341602,38.1492734 L28.5795664,38.1492734 C29.4441328,36.9531836 29.9296484,35.5203555 29.9296484,34.0209531 L29.9296484,33.989418 L31.6423398,33.989418 L31.6423398,35.9410937 Z M31.6423398,32.6373594 L29.9296484,32.6373594 L29.9296484,27.0510547 C29.9296484,25.7533516 28.8590703,24.6975977 27.5432188,24.6975977 L27.4285781,24.6975977 C26.9891523,24.6975977 26.5769492,24.8153828 26.2229648,25.0205859 C25.8580195,24.1402969 24.9909375,23.5334922 23.9970859,23.5334922 C23.3167891,23.5334922 22.7012695,23.8169492 22.2627422,24.271918 C21.8606914,23.8547734 21.3097695,23.5825469 20.6965859,23.5400508 C22.6879727,22.2348906 24.0063398,19.9851133 24.0063398,17.4310352 C24.0063398,16.8527109 23.9385078,16.2769023 23.8046406,15.7195117 C23.7174023,15.356543 23.352457,15.1327422 22.9893984,15.2201602 C22.6264297,15.3073086 22.4028086,15.6722539 22.489957,16.0353125 C22.5991172,16.4893828 22.6543711,16.9589062 22.6543711,17.4310352 C22.6543711,19.7345391 21.3384297,21.7346406 19.419457,22.7237305 L19.419457,21.6557578 C20.8071836,20.7602852 21.7285313,19.2019453 21.7285313,17.4310352 C21.7285313,14.6587266 19.4730938,12.4033789 16.7007852,12.4033789 C13.9284766,12.4033789 11.6731289,14.6588164 11.6731289,17.4310352 C11.6731289,19.4529687 12.8737109,21.1981836 14.5987109,21.9955469 L14.598082,22.998832 C12.3502812,22.147293 10.7473789,19.9736133 10.7473789,17.4310352 C10.7473789,14.1483242 13.4180742,11.4776289 16.7007852,11.4776289 C17.8707305,11.4776289 19.0027617,11.8165195 19.9746016,12.4576445 C20.286,12.663207 20.7053906,12.5772266 20.9111328,12.2656484 C21.1166953,11.9539805 21.0307148,11.5347695 20.7190469,11.3291172 C19.5257422,10.5417266 18.1362188,10.1256602 16.7007852,10.1256602 C12.6725508,10.1256602 9.3955,13.4028008 9.3955,17.4310352 C9.3955,20.7279414 11.5916406,23.5197461 14.5971836,24.4253711 L14.5953867,27.2284062 C13.7116836,26.8062305 12.681625,26.9839414 11.9739258,27.6995469 C11.2007305,28.4811875 11.0617422,29.6337031 11.6281172,30.5673594 C11.6435703,30.5929648 11.6608203,30.6174922 11.6795977,30.6408516 L11.9251406,30.9456016 C12.3542344,31.4782852 12.7570937,32.0433125 13.1340781,32.6373594 L1.42033984,32.6373594 L1.42033984,5.22117969 L31.6423398,5.22117969 L31.6423398,32.6373594 Z M31.6423398,3.86930078 L1.42033984,3.86930078 L1.42033984,3.56014844 C1.42033984,2.34258594 2.41086719,1.35196875 3.62851953,1.35196875 L29.4341602,1.35196875 C30.6518125,1.35196875 31.6423398,2.34249609 31.6423398,3.56014844 L31.6423398,3.86930078 Z" id="Shape" fill="#25262C" fill-rule="nonzero"></path>
                                <path d="M31.6423398,32.6373594 L29.9296484,32.6373594 L29.9296484,27.0510547 C29.9296484,25.7533516 28.8590703,24.6975977 27.5432187,24.6975977 L27.4285781,24.6975977 C26.9891523,24.6975977 26.5769492,24.8153828 26.2229648,25.0205859 C25.8580195,24.1402969 24.9909375,23.5334922 23.9970859,23.5334922 C23.3167891,23.5334922 22.7012695,23.8169492 22.2627422,24.271918 C21.8606914,23.8547734 21.3097695,23.5825469 20.6965859,23.5400508 C22.6879727,22.2348906 24.0063398,19.9851133 24.0063398,17.4310352 C24.0063398,16.8527109 23.9385078,16.2769023 23.8046406,15.7195117 C23.7174023,15.356543 23.352457,15.1327422 22.9893984,15.2201602 C22.6264297,15.3073086 22.4028086,15.6722539 22.489957,16.0353125 C22.5991172,16.4893828 22.6543711,16.9589063 22.6543711,17.4310352 C22.6543711,19.7345391 21.3384297,21.7346406 19.419457,22.7237305 L19.419457,21.6557578 C20.8071836,20.7602852 21.7285312,19.2019453 21.7285312,17.4310352 C21.7285312,14.6587266 19.4730937,12.4033789 16.7007852,12.4033789 C13.9284766,12.4033789 11.6731289,14.6588164 11.6731289,17.4310352 C11.6731289,19.4529688 12.8737109,21.1981836 14.5987109,21.9955469 L14.598082,22.998832 C12.3502812,22.147293 10.7473789,19.9736133 10.7473789,17.4310352 C10.7473789,14.1483242 13.4180742,11.4776289 16.7007852,11.4776289 C17.8707305,11.4776289 19.0027617,11.8165195 19.9746016,12.4576445 C20.286,12.663207 20.7053906,12.5772266 20.9111328,12.2656484 C21.1166953,11.9539805 21.0307148,11.5347695 20.7190469,11.3291172 C19.5257422,10.5417266 18.1362187,10.1256602 16.7007852,10.1256602 C12.6725508,10.1256602 9.3955,13.4028008 9.3955,17.4310352 C9.3955,20.7279414 11.5916406,23.5197461 14.5971836,24.4253711 L14.5953867,27.2284063 C13.7116836,26.8062305 12.681625,26.9839414 11.9739258,27.6995469 C11.2007305,28.4811875 11.0617422,29.6337031 11.6281172,30.5673594 C11.6435703,30.5929648 11.6608203,30.6174922 11.6795977,30.6408516 L11.9251406,30.9456016 C12.3542344,31.4782852 12.7570937,32.0433125 13.1340781,32.6373594 L1.42033984,32.6373594 L1.42033984,5.22117969 L31.6423398,5.22117969 L31.6423398,32.6373594 Z" id="Path" fill="#D6A64B"></path>
                            </g>
                        </g>
                    </g>
                </g>
            </g>
        </g>
    </g>
</svg>