<?xml version="1.0" encoding="UTF-8"?>
<svg width="80px" height="80px" viewBox="0 0 80 80" version="1.1" xmlns="http://www.w3.org/2000/svg" xmlns:xlink="http://www.w3.org/1999/xlink">
    <!-- Generator: Sketch 50.2 (55047) - http://www.bohemiancoding.com/sketch -->
    <title>joystick</title>
    <desc>Created with Sketch.</desc>
    <defs></defs>
    <g id="Page-1" stroke="none" stroke-width="1" fill="none" fill-rule="evenodd">
        <g id="Landing" transform="translate(-689.000000, -2120.000000)">
            <g id="block-4" transform="translate(0.000000, 1922.000000)">
                <g id="icons">
                    <g transform="translate(346.000000, 168.000000)" id="joystick">
                        <g transform="translate(343.000000, 30.000000)">
                            <path d="M40,80 C62.09139,80 80,62.09139 80,40 C80,17.90861 62.09139,0 40,0 C17.90861,0 0,17.90861 0,40 C0,62.09139 17.90861,80 40,80 Z" id="Oval" fill="#E8E9EB"></path>
                            <g transform="translate(31.000000, 14.000000)">
                                <circle id="Oval-9" fill="#D6A64B" cx="13" cy="12" r="10"></circle>
                                <path d="M16.9580663,44.5049357 C16.5052632,44.5049357 16.1382612,44.8719376 16.1382612,45.3247407 L16.1382612,48.8255595 C16.1382612,51.8173567 13.7042807,54.2513372 10.7123743,54.2513372 L8.4999922,54.2513372 C5.50819493,54.2513372 3.07410526,51.8173567 3.07410526,48.8255595 L3.07410526,23.9820819 C3.07410526,22.5881949 4.20818713,21.4541131 5.60207407,21.4541131 L6.07103314,21.4541131 L13.1412242,21.4541131 L13.6101832,21.4541131 C15.0040702,21.4541131 16.138152,22.5881949 16.138152,23.9820819 L16.138152,39.5042339 C16.138152,39.9569279 16.505154,40.324039 16.9579571,40.324039 C17.4107602,40.324039 17.7777622,39.957037 17.7777622,39.5042339 L17.7777622,23.9820819 C17.7778713,21.8023392 16.0954698,20.0093567 13.9611384,19.8304405 L13.9611384,19.0063782 C13.9611384,18.401076 14.2631891,17.84446 14.769154,17.5174113 C17.4975439,15.7532476 19.1264561,12.7636335 19.1264561,9.52021832 C19.1264561,7.99369981 18.7561793,6.47558674 18.0556881,5.13005848 C17.8467524,4.72845224 17.3517037,4.57246004 16.9500975,4.78139571 C16.5484912,4.99054971 16.3923899,5.48548928 16.6014347,5.88709552 C17.1889435,7.01582846 17.4869552,8.23811306 17.4869552,9.52021832 C17.4869552,12.2049435 16.138152,14.6798596 13.8789396,16.1405536 C12.9037973,16.770963 12.3215283,17.842386 12.3215283,19.0063782 L12.3215283,19.8146121 L6.89094737,19.8146121 L6.89094737,19.0064873 C6.89094737,17.8434776 6.30682261,16.7708538 5.32862378,16.1373879 C3.12104483,14.7076959 1.77464327,12.2886706 1.72693957,9.66660429 C1.64834308,5.34379727 5.09698246,1.74396881 9.41487719,1.64190253 C10.5510331,1.61406628 11.6537856,1.82463938 12.689076,2.26510721 C13.1056374,2.4422768 13.5870409,2.2482963 13.7644288,1.83173489 C13.9417076,1.41517349 13.7476179,0.933769981 13.3310565,0.756382066 C12.0794074,0.223781676 10.7482885,-0.029582846 9.37612476,0.00272904483 C4.15950097,0.126081871 -0.00720467836,4.47465107 0.0877660819,9.69640546 C0.145403509,12.8646082 1.77136842,15.7868694 4.4374269,17.5135906 C4.94710331,17.8435867 5.25144639,18.401731 5.25144639,19.0064873 L5.25144639,19.8304405 C3.11711501,20.0093567 1.43471345,21.8024483 1.43471345,23.982191 L1.43471345,48.8255595 C1.43471345,52.7214347 4.60422612,55.8909474 8.50010136,55.8909474 L10.7124834,55.8909474 C14.6083587,55.8909474 17.7778713,52.7214347 17.7778713,48.8255595 L17.7778713,45.3247407 C17.7778713,44.8720468 17.4108694,44.5049357 16.9580663,44.5049357 Z" id="Shape" fill="#25262C" fill-rule="nonzero"></path>
                                <path d="M6.21239766,28.402807 C4.95878363,28.402807 3.93888499,29.4227057 3.93888499,30.6764288 C3.93888499,31.9300429 4.95878363,32.9499415 6.21239766,32.9499415 C7.46612086,32.9499415 8.48601949,31.9300429 8.48601949,30.6764288 C8.48601949,29.4227057 7.46612086,28.402807 6.21239766,28.402807 Z M6.21239766,31.3104405 C5.8628616,31.3104405 5.57838596,31.0260741 5.57838596,30.6764288 C5.57838596,30.3267836 5.86275244,30.0424172 6.21239766,30.0424172 C6.56204288,30.042308 6.84640936,30.3267836 6.84640936,30.6764288 C6.84640936,31.0259649 6.56204288,31.3104405 6.21239766,31.3104405 Z" id="Shape" fill="#25262C" fill-rule="nonzero"></path>
                                <path d="M13.0002963,28.402807 C11.7465731,28.402807 10.7266745,29.4227057 10.7266745,30.6764288 C10.7266745,31.9300429 11.7465731,32.9499415 13.0002963,32.9499415 C14.2539103,32.9499415 15.273809,31.9300429 15.273809,30.6764288 C15.273809,29.4227057 14.2539103,28.402807 13.0002963,28.402807 Z M13.0001871,31.3104405 C12.6506511,31.3104405 12.3661754,31.0259649 12.3661754,30.6764288 C12.3661754,30.3267836 12.6505419,30.0424172 13.0001871,30.0424172 C13.3497232,30.0424172 13.6341988,30.3267836 13.6341988,30.6764288 C13.6341988,31.0259649 13.3498324,31.3104405 13.0001871,31.3104405 Z" id="Shape" fill="#25262C" fill-rule="nonzero"></path>
                                <path d="M9.60634698,24.6053957 C8.35262378,24.6053957 7.33272515,25.6252943 7.33272515,26.8790175 C7.33272515,28.1326316 8.35262378,29.1525302 9.60634698,29.1525302 C10.859961,29.1525302 11.8798596,28.1326316 11.8798596,26.8790175 C11.8798596,25.6252943 10.859961,24.6053957 9.60634698,24.6053957 Z M9.60634698,27.5130292 C9.25670175,27.5130292 8.97233528,27.2286628 8.97233528,26.8790175 C8.97233528,26.5293723 9.25670175,26.2450058 9.60634698,26.2450058 C9.95588304,26.2450058 10.2403587,26.5293723 10.2403587,26.8790175 C10.2403587,27.2285536 9.9559922,27.5130292 9.60634698,27.5130292 Z" id="Shape" fill="#25262C" fill-rule="nonzero"></path>
                                <path d="M9.60634698,32.2002183 C8.35262378,32.2002183 7.33272515,33.220117 7.33272515,34.4738402 C7.33272515,35.7274542 8.35262378,36.7473528 9.60634698,36.7473528 C10.859961,36.7473528 11.8798596,35.7274542 11.8798596,34.4738402 C11.8798596,33.220117 10.859961,32.2002183 9.60634698,32.2002183 Z M9.60634698,35.1077427 C9.25670175,35.1077427 8.97233528,34.8233762 8.97233528,34.473731 C8.97233528,34.1241949 9.25670175,33.8397193 9.60634698,33.8397193 C9.95588304,33.8397193 10.2403587,34.1240858 10.2403587,34.473731 C10.2403587,34.8232671 9.9559922,35.1077427 9.60634698,35.1077427 Z" id="Shape" fill="#25262C" fill-rule="nonzero"></path>
                            </g>
                        </g>
                    </g>
                </g>
            </g>
        </g>
    </g>
</svg>