<?xml version="1.0" encoding="UTF-8"?>
<svg width="80px" height="80px" viewBox="0 0 80 80" version="1.1" xmlns="http://www.w3.org/2000/svg" xmlns:xlink="http://www.w3.org/1999/xlink">
    <!-- Generator: Sketch 50.2 (55047) - http://www.bohemiancoding.com/sketch -->
    <title>playstation-4</title>
    <desc>Created with Sketch.</desc>
    <defs></defs>
    <g id="Page-1" stroke="none" stroke-width="1" fill="none" fill-rule="evenodd">
        <g id="Landing" transform="translate(-578.000000, -2090.000000)">
            <g id="block-4" transform="translate(0.000000, 1922.000000)">
                <g id="icons">
                    <g transform="translate(346.000000, 168.000000)" id="playstation-4">
                        <g transform="translate(232.000000, 0.000000)">
                            <path d="M40,80 C62.09139,80 80,62.09139 80,40 C80,17.90861 62.09139,0 40,0 C17.90861,0 0,17.90861 0,40 C0,62.09139 17.90861,80 40,80 Z" id="Oval-5" fill="#E8E9EB"></path>
                            <g transform="translate(19.000000, 22.000000)">
                                <path d="M45.3530985,38.8110125 L44.0084453,36.121706 L44.0084453,1.50826525 C44.0084453,0.725518261 43.3716538,0.0886379776 42.5888181,0.0886379776 L9.22757725,0.0886379776 L2.83925454,0.0886379776 C2.05650755,0.0886379776 1.41962727,0.725429535 1.41962727,1.50826525 L1.41962727,36.1216173 L0.0749740652,38.8110125 C-0.0350470482,39.0310547 -0.0232463965,39.2923548 0.106028412,39.5016611 C0.23530322,39.7108787 0.46386321,39.8382902 0.709813635,39.8382902 L44.718259,39.8382902 C44.9642094,39.8382902 45.1927694,39.7108787 45.3220442,39.5016611 C45.4514077,39.2923548 45.4632084,39.0310547 45.3530985,38.8110125 Z M1.8582921,38.418663 L2.56810573,36.9990357 L9.22757725,36.9990357 L38.3299363,36.9990357 C38.7219308,36.9990357 39.0397499,36.6812166 39.0397499,36.2892221 C39.0397499,35.8972275 38.7219308,35.5794084 38.3299363,35.5794084 L9.93739088,35.5794084 L9.93739088,11.4457449 L38.3299363,11.4457449 C38.7219308,11.4457449 39.0397499,11.1279258 39.0397499,10.7359312 C39.0397499,10.3439366 38.7219308,10.0261176 38.3299363,10.0261176 L9.93739088,10.0261176 L9.93739088,1.50835397 L42.5888181,1.50835397 L42.5888181,10.0261176 L41.1691908,10.0261176 C40.7771962,10.0261176 40.4593772,10.3439366 40.4593772,10.7359312 C40.4593772,11.1279258 40.7771962,11.4457449 41.1691908,11.4457449 L42.5888181,11.4457449 L42.5888181,35.5794084 L41.1691908,35.5794084 C40.7771962,35.5794084 40.4593772,35.8972275 40.4593772,36.2892221 C40.4593772,36.6812166 40.7771962,36.9990357 41.1691908,36.9990357 L42.8599669,36.9990357 L43.5697805,38.418663 L1.8582921,38.418663 Z" id="Shape" fill="#25262C" fill-rule="nonzero"></path>
                                <path d="M4.96869544,1.50835397 L4.96869544,7.89667668 C4.96869544,8.28867126 5.2865145,8.60649032 5.67850908,8.60649032 C6.07050366,8.60649032 6.38832271,8.28867126 6.38832271,7.89667668 L6.38832271,1.50835397 L8.51776361,1.50835397 L8.51776361,10.0261176 L2.83925454,10.0261176 L2.83925454,1.50835397 L4.96869544,1.50835397 Z" id="Path" fill="#D6A64B"></path>
                                <polygon id="Path" fill="#D6A64B" points="8.51776361 35.5794084 6.38832271 35.5794084 6.38832271 11.4457449 8.51776361 11.4457449"></polygon>
                                <polygon id="Path" fill="#D6A64B" points="2.83925454 35.5794084 2.83925454 11.4457449 4.96869544 11.4457449 4.96869544 35.5794084"></polygon>
                                <path d="M41.1691908,7.54176987 C41.1691908,6.95466526 40.691575,6.47704942 40.1044704,6.47704942 C39.5173658,6.47704942 39.0397499,6.95466526 39.0397499,7.54176987 C39.0397499,8.12887447 39.5173658,8.60649032 40.1044704,8.60649032 C40.691575,8.60649032 41.1691908,8.12887447 41.1691908,7.54176987 Z" id="Shape" fill="#000000" fill-rule="nonzero"></path>
                            </g>
                        </g>
                    </g>
                </g>
            </g>
        </g>
    </g>
</svg>