<?xml version="1.0" encoding="UTF-8"?>
<svg width="80px" height="80px" viewBox="0 0 80 80" version="1.1" xmlns="http://www.w3.org/2000/svg" xmlns:xlink="http://www.w3.org/1999/xlink">
    <!-- Generator: Sketch 50.2 (55047) - http://www.bohemiancoding.com/sketch -->
    <title>ps4</title>
    <desc>Created with Sketch.</desc>
    <defs></defs>
    <g id="Page-1" stroke="none" stroke-width="1" fill="none" fill-rule="evenodd">
        <g id="Landing" transform="translate(-686.000000, -2498.000000)">
            <g id="block-4" transform="translate(0.000000, 1922.000000)">
                <g id="icons">
                    <g transform="translate(346.000000, 168.000000)" id="ps4">
                        <g transform="translate(340.000000, 408.000000)">
                            <path d="M40,80 C62.09139,80 80,62.09139 80,40 C80,17.90861 62.09139,0 40,0 C17.90861,0 0,17.90861 0,40 C0,62.09139 17.90861,80 40,80 Z" id="Oval" fill="#E8E9EB"></path>
                            <g transform="translate(22.000000, 19.000000)">
                                <path d="M12.5181003,3.65271391 C12.1446354,3.65271391 11.8418958,3.95545352 11.8418958,4.32891836 L11.8418958,8.56665009 C11.8418958,8.94011493 12.1446354,9.24285454 12.5181003,9.24285454 C12.8915651,9.24285454 13.1943047,8.94011493 13.1943047,8.56665009 L13.1943047,4.32891836 C13.1943047,3.95545352 12.8915651,3.65271391 12.5181003,3.65271391 Z" id="Shape" fill="#25262C" fill-rule="nonzero"></path>
                                <path d="M45.1717204,39.6375372 C45.1717204,39.6388717 45.1717204,39.6401171 45.1717204,39.6412737 C45.1730548,39.3970714 45.1740334,39.1523354 45.1659378,38.9082221 C45.1225241,36.7383362 44.8264567,34.5801044 44.2804934,32.4760508 C44.1867269,32.1145959 43.8176212,31.8977942 43.4560774,31.9912938 C43.0946225,32.0851493 42.8775538,32.454255 42.9713203,32.8157099 C43.4600807,34.6991363 43.7382666,36.6282006 43.8040099,38.5691858 C43.1374135,38.9938041 42.3037453,39.4779384 41.0595149,39.8030966 C40.0763006,40.0601094 39.0015439,40.1744263 37.8589977,40.1448907 L37.1589512,37.7409443 C36.9211543,36.924268 36.3903147,36.2458395 35.7024561,35.807432 C36.5176201,35.1410134 37.0391187,34.1281746 37.0391187,32.9956812 C37.0391187,32.8122404 37.0251515,32.6320912 36.9988186,32.4559453 C37.3634762,32.5581633 37.7472607,32.6140318 38.1441227,32.6140318 C39.9095847,32.6140318 41.4265744,31.5313574 42.0671048,29.9952408 C42.1028678,30.0886515 42.1392535,30.1818842 42.1739489,30.2755618 C42.2749214,30.54841 42.5333576,30.7172609 42.808252,30.7172609 C42.8861832,30.7172609 42.9655378,30.7036497 43.0429352,30.6750037 C43.3931808,30.5453853 43.5719956,30.156263 43.4423771,29.8061064 C42.9538837,28.4865247 42.3599696,27.1935428 41.6771819,25.9631905 L41.3401917,25.355932 C40.7308871,24.258045 39.5723277,23.5759691 38.31671,23.5759691 L37.5144456,23.5759691 C37.1250565,23.5759691 36.7588866,23.7275613 36.4836364,24.0029894 C36.4639757,24.0225611 36.4368421,24.0338594 36.4090858,24.0338594 L31.9900483,24.0338594 L28.2294228,24.0338594 L24.7295466,24.0338594 L20.0498489,24.0338594 C20.0220926,24.0338594 19.99487,24.0225611 19.9753872,24.0030783 C19.7000481,23.7277392 19.3339671,23.576058 18.944489,23.576058 L18.1422246,23.576058 C16.886607,23.576058 15.7281365,24.258134 15.1188319,25.355932 L14.7817527,25.9632795 C12.578239,29.9337676 11.3824042,34.3876784 11.292552,38.9168515 C11.2739588,39.3306164 11.2845454,39.7490963 11.294954,40.1629501 L11.3200414,41.1632452 L9.35761625,41.1632452 L9.35761625,15.8208355 L14.6876303,15.8208355 L14.6876303,21.9409261 C14.6876303,22.3143909 14.9903699,22.6171305 15.3638348,22.6171305 C15.7372996,22.6171305 16.0400392,22.3143909 16.0400392,21.9409261 L16.0400392,2.16997486 C16.0398613,0.973428374 15.0664329,0 13.8698864,0 L3.71890206,0 C2.52235557,0 1.5489272,0.973428374 1.5489272,2.16997486 L1.5489272,41.6786053 L0.0927879541,44.5682873 C-0.0128106092,44.7779721 -0.0022240641,45.0273342 0.120900124,45.227233 C0.244024313,45.4271319 0.461893632,45.5488327 0.696665838,45.5488327 L15.132888,45.5488327 C15.1581533,45.5488327 15.1830629,45.5471424 15.2077055,45.5444735 C15.2678442,45.5471424 15.3281608,45.5488327 15.3887443,45.5488327 C17.1820517,45.5488327 18.7848012,44.3462368 19.2861942,42.6244553 L20.5982141,38.1191242 C20.855138,37.2367045 21.6765294,36.6203719 22.5956016,36.6203719 L33.8628882,36.6203719 C34.7819605,36.6203719 35.6033518,37.2367045 35.8603647,38.1192132 L37.1723846,42.6244553 C37.6737776,44.3463257 39.2764382,45.5489217 41.0698345,45.5489217 L41.0700124,45.5489217 C41.0701014,45.5489217 41.0701904,45.5489217 41.0702793,45.5489217 C42.1354281,45.5489217 43.1419505,45.139338 43.9045376,44.3957 C44.6670358,43.6520619 45.1017069,42.656037 45.1284846,41.5912441 L45.1642475,40.1628612 C45.1685178,39.9919641 45.1704749,39.8208891 45.1716314,39.649992 C45.1716314,39.6501699 45.1716314,39.6497251 45.1716314,39.6484796 C45.1719873,39.588252 45.1719873,39.5837149 45.1718983,39.5964365 C45.17261,39.4744688 45.1718983,39.5975041 45.1717204,39.6375372 Z M38.1439447,25.4693593 C39.7408228,25.4693593 41.040032,26.7685686 41.040032,28.3654466 C41.040032,29.9623246 39.7408228,31.2615339 38.1439447,31.2615339 C36.5470667,31.2615339 35.2479464,29.9623246 35.2479464,28.3654466 C35.2479464,26.7685686 36.5470667,25.4693593 38.1439447,25.4693593 Z M25.4056621,25.3861793 L28.2292449,25.3861793 L31.313666,25.3861793 L31.313666,26.5634209 C31.313666,27.0620561 30.9079967,27.4677254 30.4093615,27.4677254 L26.3099666,27.4677254 C25.8113314,27.4677254 25.4056621,27.0620561 25.4056621,26.5634209 L25.4056621,25.3861793 Z M16.004899,27.0746888 C16.3072828,26.5531013 16.7786954,26.1364896 17.3322205,25.9017174 C17.6765056,25.7556408 18.0426755,25.681624 18.4206774,25.681624 C19.9590181,25.681624 21.2106324,26.9331493 21.2106324,28.4715789 C21.2106324,30.0099196 19.9591071,31.2615339 18.4206774,31.2615339 C16.8822478,31.2615339 15.6307225,30.0099196 15.6307225,28.4715789 C15.6306335,27.9799718 15.760074,27.4969941 16.004899,27.0746888 Z M2.9013361,15.8208355 L8.00494046,15.8208355 L8.00494046,41.1631562 L2.9013361,41.1631562 L2.9013361,15.8208355 Z M1.7946418,44.1963349 L2.64165437,42.5155651 L11.4608692,42.5155651 C11.6222473,43.1372355 11.9299688,43.7115778 12.3649068,44.1963349 L1.7946418,44.1963349 Z M19.2996276,37.7409443 L18.5994922,40.1451576 C18.4411388,40.1492499 18.283942,40.1505843 18.1291471,40.1492499 C18.127012,40.1492499 18.1248769,40.1492499 18.1228308,40.1492499 C17.7523017,40.1492499 17.4501848,40.4479862 17.4468043,40.819227 C17.4433347,41.1926918 17.7433165,41.4981893 18.1167813,41.5016588 C18.145961,41.5019257 18.1751408,41.5021036 18.2044094,41.5021926 L17.9876966,42.2462755 C17.6532864,43.3944263 16.5845791,44.1964238 15.3887443,44.1964238 C13.9084072,44.1964238 12.7197784,43.0371526 12.682681,41.5573494 L12.647185,40.1424887 C13.2715242,40.491222 14.0495019,40.8482288 15.0576256,41.1117359 C15.4190805,41.2061252 15.7884531,40.9897682 15.8828424,40.6284912 C15.9773206,40.2671253 15.7608747,39.8976638 15.3995977,39.8032745 C14.1551004,39.4780274 13.3214322,38.9938931 12.6547468,38.5691858 C12.7575875,35.5462379 13.3778345,32.5643017 14.4836392,29.7575328 C15.025955,31.4139268 16.5853797,32.6141207 18.4207664,32.6141207 C18.7783069,32.6141207 19.1253499,32.5685719 19.4564686,32.4829899 C19.4326266,32.6505954 19.4195491,32.8216704 19.4195491,32.9957701 C19.4195491,34.1283525 19.9410477,35.1411913 20.7562116,35.8075209 C20.0682641,36.2459284 19.5374245,36.924357 19.2996276,37.7409443 Z M23.2112225,35.267874 L22.8898898,35.267874 C21.8505401,35.1950137 21.0014814,34.4224628 20.8120801,33.419143 C21.1915944,33.7531084 21.6888062,33.9563879 22.2329012,33.9563879 C23.4203735,33.9563879 24.386507,32.9902545 24.386507,31.8027822 C24.386507,31.5431004 24.3403354,31.2939163 24.255643,31.0632364 C24.8995541,31.4663257 25.3290653,32.1816737 25.3290653,32.9956812 C25.3290653,34.1980102 24.3928233,35.1851388 23.2112225,35.267874 Z M21.4317044,31.8027822 C21.4317044,31.3609941 21.7911131,31.0016743 22.2329012,31.0016743 C22.6746893,31.0016743 23.0340981,31.3609941 23.0340981,31.8027822 C23.0340981,32.2445702 22.6746893,32.603979 22.2329012,32.603979 C21.7911131,32.603979 21.4317044,32.2445702 21.4317044,31.8027822 Z M30.5787462,35.2677851 L28.2292449,35.2677851 L28.2292449,35.267874 L25.8797436,35.267874 C26.3807808,34.645314 26.6815632,33.8551485 26.6815632,32.9956812 C26.6815632,30.9935787 25.0527476,29.3646741 23.0505562,29.3646741 C22.8471877,29.3646741 22.6479116,29.3822887 22.4534394,29.4145821 C22.5243426,29.1113977 22.5630413,28.7960254 22.5630413,28.4715789 C22.5630413,27.2470093 22.0284653,26.1452079 21.1809189,25.3861793 L24.0531642,25.3861793 L24.0531642,26.5634209 C24.0531642,27.8078293 25.0655582,28.8202232 26.3099666,28.8202232 L30.4093615,28.8202232 C31.6537699,28.8202232 32.6661638,27.8078293 32.6661638,26.5634209 L32.6661638,25.3861793 L35.1188617,25.3861793 C34.3630358,26.1535704 33.8954485,27.2058196 33.8954485,28.3654466 C33.8954485,28.7288587 33.9414422,29.0816842 34.0277359,29.4185854 C33.8261467,29.3837121 33.6193087,29.3645852 33.4079337,29.3645852 C31.4058312,29.3645852 29.7769266,30.9934897 29.7769266,32.9955922 C29.7769266,33.8550595 30.0777091,34.645225 30.5787462,35.2677851 Z M35.1217975,31.8026932 C35.1217975,32.2444813 34.7623887,32.60389 34.3206896,32.60389 C33.8789015,32.60389 33.5194927,32.2444813 33.5194927,31.8026932 C33.5194927,31.3609051 33.8789905,31.0015853 34.3206896,31.0015853 C34.4164133,31.0015853 34.5078668,31.0193778 34.593004,31.0502478 C34.7325863,31.1356519 34.8620268,31.2360017 34.9798132,31.3483614 C35.0691316,31.477624 35.1217975,31.6340202 35.1217975,31.8026932 Z M33.5686001,35.267874 L33.2473563,35.267874 C32.0657555,35.1850499 31.1294245,34.1980102 31.1294245,32.9956812 C31.1294245,32.1303423 31.6143594,31.3762067 32.3265937,30.9905539 C32.2240199,31.2413394 32.1670839,31.515522 32.1670839,31.8027822 C32.1670839,32.9902545 33.1332173,33.9563879 34.3206896,33.9563879 C34.8113181,33.9563879 35.2637817,33.7911844 35.6263042,33.5138881 C35.4028302,34.4707694 34.5750336,35.1974157 33.5686001,35.267874 Z M43.7758978,41.5573494 C43.7388004,43.0370637 42.5502605,44.1962459 41.0701014,44.1964238 C39.8742666,44.1963349 38.8056483,43.3944263 38.471327,42.2463644 L38.2546142,41.5022815 C39.3658456,41.4986341 40.4208526,41.3679481 41.401398,41.1117359 C42.4092549,40.8483177 43.1871435,40.4914889 43.8113049,40.1427556 L43.7758978,41.5573494 Z" id="Shape" fill="#25262C" fill-rule="nonzero"></path>
                                <path d="M2.9013361,2.16997486 C2.9013361,1.71920155 3.26812875,1.35249786 3.71890206,1.35249786 L8.00502942,1.35249786 L8.00502942,3.24695566 C8.00502942,3.6204205 8.30776903,3.9231601 8.68123387,3.9231601 C9.05469872,3.9231601 9.35743832,3.6204205 9.35743832,3.24695566 L9.35743832,1.35249786 L13.8699754,1.35249786 C14.3207487,1.35249786 14.6874524,1.71920155 14.6874524,2.16997486 L14.6874524,14.4684266 L9.35743832,14.4684266 L9.35743832,6.44773974 C9.35743832,6.0742749 9.05469872,5.77153529 8.68123387,5.77153529 C8.30776903,5.77153529 8.00502942,6.0742749 8.00502942,6.44773974 L8.00502942,14.4683376 L2.9013361,14.4684266 L2.9013361,2.16997486 Z" id="Path" fill="#D6A64B"></path>
                                <circle id="Oval" fill="#25262C" fill-rule="nonzero" cx="38.0377234" cy="27.1495952" r="1"></circle>
                                <circle id="Oval" fill="#25262C" fill-rule="nonzero" cx="38.0377234" cy="29.7935626" r="1"></circle>
                                <circle id="Oval" fill="#25262C" fill-rule="nonzero" cx="36.6854925" cy="28.4413317" r="1"></circle>
                                <circle id="Oval" fill="#25262C" fill-rule="nonzero" cx="39.3899544" cy="28.4413317" r="1"></circle>
                                <circle id="Oval" fill="#25262C" fill-rule="nonzero" cx="18.4205885" cy="27.1558226" r="1"></circle>
                                <circle id="Oval" fill="#25262C" fill-rule="nonzero" cx="18.4205885" cy="29.8006797" r="1"></circle>
                                <circle id="Oval" fill="#25262C" fill-rule="nonzero" cx="17.0683575" cy="28.4484487" r="1"></circle>
                                <circle id="Oval" fill="#25262C" fill-rule="nonzero" cx="19.7728195" cy="28.4484487" r="1"></circle>
                            </g>
                        </g>
                    </g>
                </g>
            </g>
        </g>
    </g>
</svg>