<?xml version="1.0" encoding="UTF-8"?>
<svg width="80px" height="80px" viewBox="0 0 80 80" version="1.1" xmlns="http://www.w3.org/2000/svg" xmlns:xlink="http://www.w3.org/1999/xlink">
    <!-- Generator: Sketch 50.2 (55047) - http://www.bohemiancoding.com/sketch -->
    <title>sensor</title>
    <desc>Created with Sketch.</desc>
    <defs></defs>
    <g id="Page-1" stroke="none" stroke-width="1" fill="none" fill-rule="evenodd">
        <g id="Landing" transform="translate(-376.000000, -2193.000000)">
            <g id="block-4" transform="translate(0.000000, 1922.000000)">
                <g id="icons">
                    <g transform="translate(346.000000, 168.000000)" id="sensor">
                        <g transform="translate(30.000000, 103.000000)">
                            <path d="M40,80 C62.09139,80 80,62.09139 80,40 C80,17.90861 62.09139,0 40,0 C17.90861,0 0,17.90861 0,40 C0,62.09139 17.90861,80 40,80 Z" id="Oval" fill="#E8E9EB"></path>
                            <g transform="translate(18.000000, 28.000000)">
                                <path d="M44.694375,0.0255 L11.7150937,0.0255 C11.3250937,0.0255 11.0090625,0.34153125 11.0090625,0.73153125 C11.0090625,1.12153125 11.3250937,1.4375625 11.7150937,1.4375625 L44.694375,1.4375625 C45.7384687,1.4375625 46.5879375,2.287125 46.5879375,3.33121875 L46.5879375,15.3194063 C46.5879375,16.3635937 45.7384687,17.2129687 44.694375,17.2129687 L39.3444375,17.2129687 C38.9544375,17.2129687 38.6384062,17.529 38.6384062,17.919 C38.6384062,18.309 38.9544375,18.6250312 39.3444375,18.6250312 L44.694375,18.6250312 C46.5170625,18.6250312 48,17.1420938 48,15.3194063 L48,3.3313125 C48,1.5084375 46.5170625,0.0255 44.694375,0.0255 Z" id="Shape" fill="#000000" fill-rule="nonzero"></path>
                                <path d="M10.332,5.6278125 C8.29321875,5.6278125 6.6345,7.28653125 6.6345,9.3253125 C6.6345,11.3640937 8.29321875,13.0227187 10.332,13.0227187 C12.3707812,13.0227187 14.0294062,11.3640937 14.0294062,9.3253125 C14.0294062,7.28653125 12.3707813,5.6278125 10.332,5.6278125 Z" id="Shape" fill="#25262C" fill-rule="nonzero"></path>
                                <path d="M10.332,11.61075 C9.0718125,11.61075 8.0465625,10.5855 8.0465625,9.32540625 C8.0465625,8.06521875 9.0718125,7.03996875 10.332,7.03996875 C11.5920937,7.03996875 12.6173437,8.06521875 12.6173437,9.32540625 C12.6173437,10.5855 11.5920937,11.61075 10.332,11.61075 Z" id="Path" fill="#D6A64B"></path>
                                <path d="M20.5105312,5.62790625 C18.47175,5.62790625 16.813125,7.286625 16.813125,9.32540625 C16.813125,11.3641875 18.47175,13.0228125 20.5105312,13.0228125 C22.5493125,13.0228125 24.2079375,11.3640938 24.2079375,9.32540625 C24.2079375,7.286625 22.5493125,5.62790625 20.5105312,5.62790625 Z" id="Shape" fill="#25262C" fill-rule="nonzero"></path>
                                <path d="M20.510625,11.61075 C19.2505312,11.61075 18.2252812,10.5855 18.2252812,9.32540625 C18.2252812,8.06521875 19.2505312,7.03996875 20.510625,7.03996875 C21.7707187,7.03996875 22.7959687,8.06521875 22.7959687,9.32540625 C22.7959687,10.5855 21.7707187,11.61075 20.510625,11.61075 Z" id="Path" fill="#D6A64B"></path>
                                <path d="M30.6891562,5.62790625 C28.650375,5.62790625 26.99175,7.286625 26.99175,9.32540625 C26.99175,11.3641875 28.650375,13.0228125 30.6891562,13.0228125 C32.7279375,13.0228125 34.3866562,11.3640938 34.3866562,9.32540625 C34.3866562,7.286625 32.7279375,5.62790625 30.6891562,5.62790625 Z" id="Shape" fill="#25262C" fill-rule="nonzero"></path>
                                <path d="M30.68925,11.61075 C29.4290625,11.6106563 28.4039063,10.5855 28.4039063,9.32540625 C28.4039063,8.06521875 29.4291563,7.03996875 30.68925,7.03996875 C31.9494375,7.03996875 32.9746875,8.06521875 32.9746875,9.32540625 C32.9746875,10.5855 31.9494375,11.61075 30.68925,11.61075 Z" id="Path" fill="#D6A64B"></path>
                                <circle id="Oval" fill="#D6A64B" fill-rule="nonzero" cx="38.97" cy="9.3253125" r="1.689375"></circle>
                                <path d="M34.331625,17.2130625 L3.305625,17.2130625 C2.2614375,17.2130625 1.4120625,16.3635938 1.4120625,15.3195 L1.4120625,3.3313125 C1.4120625,2.287125 2.26153125,1.43765625 3.305625,1.43765625 L6.63159375,1.43765625 C7.02159375,1.43765625 7.337625,1.121625 7.337625,0.731625 C7.337625,0.341625 7.02159375,0.02559375 6.63159375,0.02559375 L3.305625,0.02559375 C1.4829375,0.0255 0,1.5084375 0,3.3313125 L0,15.3195 C0,17.1421875 1.4829375,18.625125 3.305625,18.625125 L20.0900625,18.625125 L20.0900625,22.5720938 L15.1553437,22.5720938 C14.3483437,22.5720938 13.6919062,23.2285312 13.6919062,24.0355313 L13.6919062,25.8860625 C13.6919062,26.6930625 14.3483437,27.3495 15.1553437,27.3495 L32.8445625,27.3495 C33.6515625,27.3495 34.308,26.6930625 34.308,25.8860625 L34.308,24.0355313 C34.308,23.2285312 33.6515625,22.5720938 32.8445625,22.5720938 L27.9099375,22.5720938 L27.9099375,18.625125 L34.331625,18.625125 C34.721625,18.625125 35.0376562,18.3090938 35.0376562,17.9190937 C35.0376562,17.5290937 34.7215312,17.2130625 34.331625,17.2130625 Z M21.502125,18.69 L26.497875,18.69 L26.497875,22.5720937 L21.502125,22.5720937 L21.502125,18.69 Z" id="Shape" fill="#25262C" fill-rule="nonzero"></path>
                                <path d="M32.8445625,23.9841562 C32.872875,23.9841562 32.8959375,24.0072187 32.8959375,24.0355312 L32.8959375,25.8860625 C32.8959375,25.914375 32.872875,25.9374375 32.8445625,25.9374375 L15.1554375,25.9374375 C15.127125,25.9374375 15.1040625,25.914375 15.1040625,25.8860625 L15.1040625,24.0355312 C15.1040625,24.0072187 15.127125,23.9841562 15.1554375,23.9841562 L20.7961875,23.9841562 L27.204,23.9841562 L32.8445625,23.9841562 Z" id="Path" fill="#D6A64B"></path>
                            </g>
                        </g>
                    </g>
                </g>
            </g>
        </g>
    </g>
</svg>