<?xml version="1.0" encoding="UTF-8"?>
<svg width="80px" height="80px" viewBox="0 0 80 80" version="1.1" xmlns="http://www.w3.org/2000/svg" xmlns:xlink="http://www.w3.org/1999/xlink">
    <!-- Generator: Sketch 50.2 (55047) - http://www.bohemiancoding.com/sketch -->
    <title>smartphone</title>
    <desc>Created with Sketch.</desc>
    <defs></defs>
    <g id="Page-1" stroke="none" stroke-width="1" fill="none" fill-rule="evenodd">
        <g id="Landing" transform="translate(-763.000000, -2193.000000)">
            <g id="block-4" transform="translate(0.000000, 1922.000000)">
                <g id="icons">
                    <g transform="translate(346.000000, 168.000000)" id="smartphone">
                        <g transform="translate(417.000000, 103.000000)">
                            <path d="M40,80 C62.09139,80 80,62.09139 80,40 C80,17.90861 62.09139,0 40,0 C17.90861,0 0,17.90861 0,40 C0,62.09139 17.90861,80 40,80 Z" id="Oval" fill="#E8E9EB"></path>
                            <g transform="translate(28.000000, 19.000000)">
                                <rect id="Rectangle-14" fill="#D6A64B" x="2.46428571" y="5.75" width="23" height="32.0357143"></rect>
                                <path d="M23.5421365,0 L4.3345809,0 C2.33344639,0 0.705423002,1.62802339 0.705423002,3.62915789 L0.705423002,8.02883821 C0.359660819,8.05869786 0.0882339181,8.34841715 0.0882339181,8.70198051 L0.0882339181,10.227692 C0.0882339181,10.5812554 0.359660819,10.8709747 0.705423002,10.9008343 L0.705423002,11.8960663 C0.359660819,11.9259259 0.0882339181,12.2156452 0.0882339181,12.5692086 L0.0882339181,14.0949201 C0.0882339181,14.4484834 0.359660819,14.7381131 0.705423002,14.7680624 L0.705423002,17.5757661 C0.705423002,17.9477115 1.00697856,18.2492671 1.37892398,18.2492671 C1.7508694,18.2492671 2.05242495,17.9477115 2.05242495,17.5757661 L2.05242495,5.24157895 L25.8242027,5.24157895 L25.8242027,38.1009123 L2.05242495,38.1009123 L2.05242495,22.4156296 C2.05242495,22.0436842 1.7508694,21.7421287 1.37892398,21.7421287 C1.00697856,21.7421287 0.705423002,22.0436842 0.705423002,22.4156296 L0.705423002,42.2812632 C0.705423002,44.2823977 2.33344639,45.9104211 4.3345809,45.9104211 L13.5786082,45.9104211 C13.9505536,45.9104211 14.2521092,45.6088655 14.2521092,45.2369201 C14.2521092,44.8649747 13.9505536,44.5634191 13.5786082,44.5634191 L4.3345809,44.5634191 C3.07617154,44.5634191 2.05242495,43.5396725 2.05242495,42.2812632 L2.05242495,39.4480039 L25.8242027,39.4480039 L25.8242027,42.2812632 C25.8242027,43.5396725 24.8004561,44.5634191 23.5421365,44.5634191 L18.3465575,44.5634191 C17.9746121,44.5634191 17.6730565,44.8649747 17.6730565,45.2369201 C17.6730565,45.6088655 17.9746121,45.9104211 18.3465575,45.9104211 L23.5421365,45.9104211 C25.543271,45.9104211 27.1712047,44.2823977 27.1712047,42.2812632 L27.1712047,38.7745029 L27.1712047,4.56816764 L27.1712047,3.62915789 C27.1712047,1.62802339 25.5431813,0 23.5421365,0 Z M25.8242027,3.89466667 L2.05242495,3.89466667 L2.05242495,3.62924756 C2.05242495,2.37083821 3.07617154,1.34709162 4.3345809,1.34709162 L23.5421365,1.34709162 C24.8005458,1.34709162 25.8242027,2.37083821 25.8242027,3.62924756 L25.8242027,3.89466667 Z" id="Shape" fill="#000000" fill-rule="nonzero"></path>
                                <path d="M13.9383587,39.9354425 C12.7932008,39.9354425 11.8615439,40.8670994 11.8615439,42.0122573 C11.8615439,43.1574152 12.7932008,44.0890721 13.9383587,44.0890721 C15.0835166,44.0890721 16.0151735,43.1574152 16.0151735,42.0122573 C16.0151735,40.8670994 15.0835166,39.9354425 13.9383587,39.9354425 Z M13.9383587,42.7420702 C13.5359259,42.7420702 13.2085458,42.4146901 13.2085458,42.0122573 C13.2085458,41.6098246 13.5359259,41.2824444 13.9383587,41.2824444 C14.3407914,41.2824444 14.6681715,41.6098246 14.6681715,42.0122573 C14.6680819,42.4146901 14.3407914,42.7420702 13.9383587,42.7420702 Z" id="Shape" fill="#000000" fill-rule="nonzero"></path>
                                <path d="M5.03157505,6.06841326 L3.68869786,6.06841326 C3.31675244,6.06841326 3.01519688,6.36996881 3.01519688,6.74191423 L3.01519688,8.00104094 C3.01519688,8.37298635 3.31675244,8.67454191 3.68869786,8.67454191 C4.06064327,8.67454191 4.36219883,8.37298635 4.36219883,8.00104094 L4.36219883,7.4154152 L5.03157505,7.4154152 C5.40352047,7.4154152 5.70507602,7.11385965 5.70507602,6.74191423 C5.70507602,6.36996881 5.40352047,6.06841326 5.03157505,6.06841326 Z" id="Shape" fill="#000000" fill-rule="nonzero"></path>
                                <path d="M24.1879298,6.06841326 L22.8450526,6.06841326 C22.4731072,6.06841326 22.1715517,6.36996881 22.1715517,6.74191423 C22.1715517,7.11385965 22.4731072,7.4154152 22.8450526,7.4154152 L23.5144288,7.4154152 L23.5144288,8.00104094 C23.5144288,8.37298635 23.8159844,8.67454191 24.1879298,8.67454191 C24.5598752,8.67454191 24.8614308,8.37298635 24.8614308,8.00104094 L24.8614308,6.74191423 C24.8614308,6.36996881 24.5598752,6.06841326 24.1879298,6.06841326 Z" id="Shape" fill="#000000" fill-rule="nonzero"></path>
                                <path d="M5.03157505,35.927076 L4.36219883,35.927076 L4.36219883,35.3414503 C4.36219883,34.9695049 4.06064327,34.6679493 3.68869786,34.6679493 C3.31675244,34.6679493 3.01519688,34.9695049 3.01519688,35.3414503 L3.01519688,36.600577 C3.01519688,36.9725224 3.31675244,37.274078 3.68869786,37.274078 L5.03157505,37.274078 C5.40352047,37.274078 5.70507602,36.9725224 5.70507602,36.600577 C5.70507602,36.2286316 5.40352047,35.927076 5.03157505,35.927076 Z" id="Shape" fill="#000000" fill-rule="nonzero"></path>
                                <path d="M24.1879298,34.668039 C23.8159844,34.668039 23.5144288,34.9695945 23.5144288,35.34154 L23.5144288,35.9271657 L22.8450526,35.9271657 C22.4731072,35.9271657 22.1715517,36.2287212 22.1715517,36.6006667 C22.1715517,36.9726121 22.4731072,37.2741676 22.8450526,37.2741676 L24.1879298,37.2741676 C24.5598752,37.2741676 24.8614308,36.9726121 24.8614308,36.6006667 L24.8614308,35.34154 C24.8614308,34.9695945 24.5598752,34.668039 24.1879298,34.668039 Z" id="Shape" fill="#000000" fill-rule="nonzero"></path>
                                <path d="M19.2149981,20.9977895 L18.6588733,20.9977895 C18.3618012,18.906269 16.7033801,17.247848 14.6118596,16.9507758 L14.6118596,16.3945614 C14.6118596,16.022616 14.3103041,15.7210604 13.9383587,15.7210604 C13.5664133,15.7210604 13.2648577,16.022616 13.2648577,16.3945614 L13.2648577,16.9507758 C11.1733372,17.247848 9.51491618,18.906269 9.21784405,20.9977895 L8.6617193,20.9977895 C8.28977388,20.9977895 7.98821832,21.299345 7.98821832,21.6712904 C7.98821832,22.0432359 8.28977388,22.3447914 8.6617193,22.3447914 L9.21784405,22.3447914 C9.51491618,24.4363119 11.1733372,26.0947329 13.2648577,26.3918051 L13.2648577,26.9479298 C13.2648577,27.3198752 13.5664133,27.6214308 13.9383587,27.6214308 C14.3103041,27.6214308 14.6118596,27.3198752 14.6118596,26.9479298 L14.6118596,26.3918051 C16.7033801,26.0947329 18.3618012,24.4363119 18.6588733,22.3447914 L19.2149981,22.3447914 C19.5869435,22.3447914 19.888499,22.0432359 19.888499,21.6712904 C19.888499,21.299345 19.5869435,20.9977895 19.2149981,20.9977895 Z M13.2648577,18.3161598 L13.2648577,20.9976998 L10.5832281,20.9976998 C10.8533099,19.6501598 11.9173177,18.5862417 13.2648577,18.3161598 Z M13.2649474,25.0263314 C11.9173177,24.7562495 10.8533996,23.6922417 10.5833177,22.3447018 L13.2649474,22.3447018 L13.2649474,25.0263314 Z M14.6118596,25.0262417 L14.6118596,22.3446121 L17.2933996,22.3446121 C17.0233177,23.6923314 15.9593099,24.7562495 14.6118596,25.0262417 Z M14.6119493,20.9977895 L14.6119493,18.3162495 C15.9593996,18.5862417 17.0233177,19.6502495 17.2934893,20.9977895 L14.6119493,20.9977895 Z" id="Shape" fill="#000000" fill-rule="nonzero"></path>
                                <path d="M15.1523821,2.04605848 L12.7240663,2.04605848 C12.3521209,2.04605848 12.0505653,2.34761404 12.0505653,2.71955945 C12.0505653,3.09150487 12.3521209,3.39306043 12.7240663,3.39306043 L15.1523821,3.39306043 C15.5243275,3.39306043 15.825883,3.09150487 15.825883,2.71955945 C15.825883,2.34761404 15.5243275,2.04605848 15.1523821,2.04605848 Z" id="Shape" fill="#000000" fill-rule="nonzero"></path>
                            </g>
                        </g>
                    </g>
                </g>
            </g>
        </g>
    </g>
</svg>