<?xml version="1.0" encoding="UTF-8"?>
<svg width="80px" height="80px" viewBox="0 0 80 80" version="1.1" xmlns="http://www.w3.org/2000/svg" xmlns:xlink="http://www.w3.org/1999/xlink">
    <!-- Generator: Sketch 50.2 (55047) - http://www.bohemiancoding.com/sketch -->
    <title>video-console</title>
    <desc>Created with Sketch.</desc>
    <defs></defs>
    <g id="Page-1" stroke="none" stroke-width="1" fill="none" fill-rule="evenodd">
        <g id="Landing" transform="translate(-763.000000, -2412.000000)">
            <g id="block-4" transform="translate(0.000000, 1922.000000)">
                <g id="icons">
                    <g transform="translate(346.000000, 168.000000)" id="video-console">
                        <g transform="translate(417.000000, 322.000000)">
                            <path d="M40,80 C62.09139,80 80,62.09139 80,40 C80,17.90861 62.09139,0 40,0 C17.90861,0 0,17.90861 0,40 C0,62.09139 17.90861,80 40,80 Z" id="Oval" fill="#E8E9EB"></path>
                            <g transform="translate(19.000000, 20.000000)" fill-rule="nonzero" id="Shape">
                                <path d="M42.601765,0.0172002315 L10.1214005,0.0172002315 C9.75030324,0.0172002315 9.44943287,0.317981481 9.44943287,0.689167824 C9.44943287,1.06035417 9.75030324,1.36113542 10.1214005,1.36113542 L42.601765,1.36113542 C43.5303102,1.36113542 44.2856944,2.11651968 44.2856944,3.04506481 L44.2856944,21.0734028 L1.34393519,21.0734028 L1.34393519,3.04506481 C1.34393519,2.11651968 2.09931944,1.36113542 3.02786458,1.36113542 L5.34383565,1.36113542 C5.71493287,1.36113542 6.01580324,1.06035417 6.01580324,0.689167824 C6.01580324,0.317981481 5.71493287,0.0172002315 5.34383565,0.0172002315 L3.02786458,0.0172002315 C1.35828356,0.0172002315 0,1.37539468 0,3.04506481 L0,40.4456759 C0,42.1152569 1.35828356,43.4735405 3.02786458,43.4735405 L42.601765,43.4735405 C44.2713461,43.4735405 45.6296296,42.1152569 45.6296296,40.4456759 L45.6296296,3.04506481 C45.6296296,1.37539468 44.2714352,0.0172002315 42.601765,0.0172002315 Z M44.2856944,40.4455868 C44.2856944,41.3741319 43.5303102,42.1295162 42.601765,42.1295162 L3.02786458,42.1295162 C2.09931944,42.1295162 1.34393519,41.3741319 1.34393519,40.4455868 L1.34393519,22.4172488 L44.2856944,22.4172488 L44.2856944,40.4455868 Z" fill="#25262C"></path>
                                <path d="M35.0602211,4.88990856 L10.5693194,4.88990856 C10.366018,4.88990856 10.1994329,5.05649365 10.1994329,5.25979514 L10.1994329,18.0719178 C10.1994329,18.2752193 10.366018,18.4418044 10.5693194,18.4418044 L35.0602211,18.4418044 C35.2635225,18.4418044 35.4301076,18.2752193 35.4301076,18.0719178 L35.4301076,5.25988426 C35.4301076,5.05649823 35.2635271,4.88990856 35.0602211,4.88990856 Z" stroke="#25262C" stroke-width="1.5" fill="#D6A64B"></path>
                                <path d="M31.5335498,24.9221551 L26.7867315,24.9221551 C26.4156343,24.9221551 26.1147639,25.2229363 26.1147639,25.5941227 C26.1147639,25.965309 26.4156343,26.2660903 26.7867315,26.2660903 L31.3095012,26.2660903 L31.3095012,38.6301157 L14.3200394,38.6301157 L14.3200394,26.2660012 L22.038309,26.2660012 C22.4094062,26.2660012 22.7102766,25.9652199 22.7102766,25.5940336 C22.7102766,25.2228472 22.4094062,24.922066 22.038309,24.922066 L14.0959907,24.922066 C13.4784757,24.922066 12.9761042,25.4244375 12.9761042,26.0419525 L12.9761042,38.8540752 C12.9761042,39.4715903 13.4785648,39.9740509 14.0959907,39.9740509 L31.5335498,39.9740509 C32.1510648,39.9740509 32.6534363,39.4716794 32.6534363,38.8541644 L32.6534363,26.0420417 C32.6534363,25.4245266 32.1510648,24.9221551 31.5335498,24.9221551 Z" fill="#25262C"></path>
                                <path d="M6.4189838,9.96356829 C5.45559259,9.96356829 4.67186806,10.7472928 4.67186806,11.710684 C4.67186806,12.6740752 5.45559259,13.4577998 6.4189838,13.4577998 C7.382375,13.4577998 8.16609954,12.6740752 8.16609954,11.710684 C8.16609954,10.7472928 7.38228588,9.96356829 6.4189838,9.96356829 Z M6.4189838,12.1138646 C6.19662847,12.1138646 6.01580324,11.9330394 6.01580324,11.710684 C6.01580324,11.4883287 6.19662847,11.3075035 6.4189838,11.3075035 C6.64133912,11.3075035 6.82216435,11.4883287 6.82216435,11.710684 C6.82216435,11.9330394 6.64125,12.1138646 6.4189838,12.1138646 Z" fill="#25262C"></path>
                                <path d="M39.2106458,9.96356829 C38.2472546,9.96356829 37.4635301,10.7472928 37.4635301,11.710684 C37.4635301,12.6740752 38.2472546,13.4577998 39.2106458,13.4577998 C40.174037,13.4577998 40.9577616,12.6739861 40.9577616,11.710684 C40.9577616,10.7473819 40.174037,9.96356829 39.2106458,9.96356829 Z M39.2106458,12.1138646 C38.9882905,12.1138646 38.8074653,11.9330394 38.8074653,11.710684 C38.8074653,11.4883287 38.9882905,11.3075035 39.2106458,11.3075035 C39.4330012,11.3075035 39.6138264,11.4883287 39.6138264,11.710684 C39.6138264,11.9330394 39.4330012,12.1138646 39.2106458,12.1138646 Z" fill="#25262C"></path>
                                <path d="M6.4189838,25.5862801 C4.85607986,25.5862801 3.5844213,26.8578495 3.5844213,28.4208426 C3.5844213,29.9838356 4.85599074,31.2554051 6.4189838,31.2554051 C7.98197685,31.2554051 9.2535463,29.9838356 9.2535463,28.4208426 C9.2535463,26.8577604 7.98188773,25.5862801 6.4189838,25.5862801 Z M6.4189838,29.9114699 C5.59702662,29.9114699 4.92835648,29.2427106 4.92835648,28.4208426 C4.92835648,27.5989745 5.59702662,26.9302153 6.4189838,26.9302153 C7.24094097,26.9302153 7.90961111,27.5989745 7.90961111,28.4208426 C7.90961111,29.2427106 7.24085185,29.9114699 6.4189838,29.9114699 Z" fill="#25262C"></path>
                                <path d="M35.5256968,30.563831 C34.5555324,30.563831 33.7662824,31.3531701 33.7662824,32.3233345 C33.7661933,33.2934988 34.5554433,34.0827488 35.5256968,34.0827488 C36.4958611,34.0827488 37.2851111,33.2934988 37.2851111,32.3233345 C37.2851111,31.353081 36.4958611,30.563831 35.5256968,30.563831 Z M35.5256968,32.7388137 C35.2965683,32.7388137 35.1101285,32.5523738 35.1101285,32.3233345 C35.1101285,32.0942951 35.2964792,31.9077662 35.5256968,31.9077662 C35.7548252,31.9077662 35.9411759,32.0942951 35.9411759,32.3233345 C35.9411759,32.5523738 35.7548252,32.7388137 35.5256968,32.7388137 Z" fill="#25262C"></path>
                                <path d="M41.6907766,30.563831 C40.7206123,30.563831 39.9313623,31.3531701 39.9313623,32.3233345 C39.9313623,33.2934988 40.7207014,34.0827488 41.6907766,34.0827488 C42.6608519,34.0827488 43.450191,33.2934988 43.450191,32.3233345 C43.450191,31.353081 42.660941,30.563831 41.6907766,30.563831 Z M41.6907766,32.7388137 C41.4616481,32.7388137 41.2752975,32.5523738 41.2752975,32.3233345 C41.2752975,32.0942951 41.4617373,31.9077662 41.6907766,31.9077662 C41.919816,31.9077662 42.1063449,32.0942951 42.1063449,32.3233345 C42.1063449,32.5523738 41.9199942,32.7388137 41.6907766,32.7388137 Z" fill="#25262C"></path>
                                <path d="M38.6081921,27.7365764 C37.6380278,27.7365764 36.8487778,28.5259155 36.8487778,29.4959907 C36.8486887,30.4661551 37.6379387,31.2554051 38.6081921,31.2554051 C39.5783565,31.2554051 40.3676065,30.4661551 40.3676065,29.4959907 C40.3676065,28.5258264 39.5783565,27.7365764 38.6081921,27.7365764 Z M38.6081921,29.9114699 C38.3790637,29.9114699 38.1926238,29.7250301 38.1926238,29.4959907 C38.1926238,29.2669514 38.3790637,29.0805116 38.6081921,29.0805116 C38.8373206,29.0805116 39.0237604,29.2669514 39.0237604,29.4959907 C39.0237604,29.7250301 38.8374097,29.9114699 38.6081921,29.9114699 Z" fill="#25262C"></path>
                                <path d="M38.6081921,33.3911748 C37.6380278,33.3911748 36.8487778,34.1805139 36.8487778,35.1505891 C36.8487778,36.1208426 37.6380278,36.9100926 38.6081921,36.9100926 C39.5783565,36.9100926 40.3676065,36.1208426 40.3676065,35.1505891 C40.3676956,34.1804248 39.5783565,33.3911748 38.6081921,33.3911748 Z M38.6081921,35.5661574 C38.3790637,35.5661574 38.1926238,35.3796285 38.1926238,35.1505891 C38.1926238,34.9215498 38.3790637,34.73511 38.6081921,34.73511 C38.8373206,34.73511 39.0237604,34.9215498 39.0237604,35.1505891 C39.0237604,35.3797176 38.8373206,35.5661574 38.6081921,35.5661574 Z" fill="#25262C"></path>
                                <path d="M8.78245602,35.7545579 L7.09095139,35.7545579 L7.09095139,34.0630532 C7.09095139,33.6918669 6.79008102,33.3910856 6.4189838,33.3910856 C6.04788657,33.3910856 5.7470162,33.6918669 5.7470162,34.0630532 L5.7470162,35.7545579 L4.05551157,35.7545579 C3.68441435,35.7545579 3.38354398,36.0553391 3.38354398,36.4265255 C3.38354398,36.7976227 3.68441435,37.0984931 4.05551157,37.0984931 L5.7470162,37.0984931 L5.7470162,38.7899977 C5.7470162,39.161184 6.04788657,39.4619653 6.4189838,39.4619653 C6.79008102,39.4619653 7.09095139,39.161184 7.09095139,38.7899977 L7.09095139,37.0984931 L8.78245602,37.0984931 C9.15355324,37.0984931 9.45442361,36.7977118 9.45442361,36.4265255 C9.45442361,36.0553391 9.15355324,35.7545579 8.78245602,35.7545579 Z" fill="#25262C"></path>
                                <path d="M23.9756968,7.16117824 C23.7347153,6.87893403 23.3105023,6.84578125 23.0283472,7.08667361 L19.7774144,9.86357523 C19.4952593,10.1046458 19.4619282,10.5288588 19.7029097,10.8109248 C19.8357882,10.9666181 20.0243669,11.0464699 20.2141042,11.0464699 C20.3685498,11.0464699 20.5236192,10.9935324 20.6502593,10.8854294 L23.9011921,8.10852778 C24.1834363,7.86745718 24.2167674,7.44324421 23.9756968,7.16117824 Z" fill="#25262C"></path>
                                <path d="M27.3851748,8.45199769 C27.1441042,8.16975347 26.7199803,8.13660069 26.4378252,8.37749306 L18.3185139,15.3127512 C18.0363588,15.5538218 18.0030278,15.9780347 18.2440093,16.2601007 C18.3768877,16.415794 18.5654664,16.4956458 18.7552037,16.4956458 C18.9096493,16.4956458 19.0647187,16.4427083 19.1913588,16.3346053 L27.3106701,9.39934722 C27.5928252,9.15827662 27.6261562,8.73415278 27.3851748,8.45199769 Z" fill="#25262C"></path>
                            </g>
                        </g>
                    </g>
                </g>
            </g>
        </g>
    </g>
</svg>