<?xml version="1.0" encoding="UTF-8"?>
<svg width="52px" height="56px" viewBox="0 0 52 56" version="1.1" xmlns="http://www.w3.org/2000/svg" xmlns:xlink="http://www.w3.org/1999/xlink">
    <!-- Generator: Sketch 50.2 (55047) - http://www.bohemiancoding.com/sketch -->
    <title>icon</title>
    <desc>Created with Sketch.</desc>
    <defs></defs>
    <g id="Page-1" stroke="none" stroke-width="1" fill="none" fill-rule="evenodd">
        <g id="Landing" transform="translate(-1007.000000, -2599.000000)">
            <g id="block-4" transform="translate(0.000000, 1922.000000)">
                <g id="mini-block" transform="translate(975.000000, 630.000000)">
                    <g id="icon" transform="translate(32.000000, 47.000000)">
                        <path d="M43.4143784,46.8468378 L37.1081351,46.8468378 L37.1081351,40.7297838 L37.2982703,40.6225135 C42.0225135,37.9647838 45.2343784,33.1981622 45.9514054,27.8278378 C47.1847297,26.372973 47.918973,24.4710541 47.918973,22.4304595 L47.918973,18.588027 C47.918973,16.7897838 47.0757568,15.361973 45.7820811,14.7455946 C44.2116216,6.17210811 36.8703243,0 28.0991351,0 C23.2180541,0 18.6748649,1.9162973 15.2622703,5.40532432 L5.57654054,5.40532432 L5.57654054,6.30624324 C5.57654054,9.8927027 7.49813514,13.0315405 10.3594324,14.7711351 C9.69916216,15.0836757 9.15486486,15.5891892 8.78727027,16.2161622 L7.37837838,16.2161622 C5.88832432,16.2161622 4.67562162,17.4288649 4.67562162,18.9189189 L4.67562162,19.9008108 C2.12345946,20.3323514 0.171027027,22.5521081 0.171027027,25.2251622 L0.171027027,32.4323243 C0.171027027,35.4133784 2.5952973,37.8376486 5.57635135,37.8376486 L6.47727027,37.8376486 C8.4647027,37.8376486 10.0809459,39.4538919 10.0809459,41.4413243 L10.0809459,47.3196216 C6.93681081,48.4367838 4.67562162,51.4331622 4.67562162,54.9547297 L4.67562162,55.8556486 L6.47745946,55.8556486 L6.47745946,54.9547297 C6.47745946,52.4457027 7.95408108,50.2798649 10.0811351,49.2656216 L10.0811351,55.8556486 L11.882973,55.8556486 L11.882973,48.7205676 C12.1784865,48.6781892 12.4775946,48.6484865 12.7838919,48.6484865 L19.6821081,48.6484865 L28.0991351,55.1953784 L36.5161622,48.6484865 L43.4143784,48.6484865 C46.8909189,48.6484865 49.7206216,51.4772432 49.7206216,54.9547297 L49.7206216,55.8556486 L51.5224595,55.8556486 L51.5224595,54.9547297 C51.5224595,50.4847568 47.8856757,46.8468378 43.4143784,46.8468378 Z M7.42889189,7.20716216 L16.037,7.20716216 L16.3045135,6.92243243 C19.400973,3.6207027 23.5901892,1.80164865 28.0991351,1.80164865 C35.6334054,1.80164865 42.2234324,7.14037838 43.8873514,14.3997568 C41.6891622,14.2474595 39.7477027,12.8817027 38.8702432,10.8348649 L37.1081351,6.72037838 L35.346027,10.8339189 C34.4135135,13.0086486 32.2830541,14.4141351 29.9172432,14.4141351 L15.4864595,14.4141351 C11.3197568,14.4143243 7.87840541,11.2558108 7.42889189,7.20716216 Z M39.3647838,14.4143243 L34.8512973,14.4143243 C35.7639459,13.6520811 36.5125676,12.6845676 37.0018108,11.5441351 L37.1081351,11.2972432 L37.2144595,11.5450811 C37.7035135,12.6847568 38.4530811,13.6522703 39.3647838,14.4143243 Z M10.0809459,18.0342703 C10.0809459,17.0315676 10.8963514,16.2161622 11.8990541,16.2161622 L15.4864595,16.2161622 L29.9170541,16.2161622 L44.299973,16.2161622 C45.4035135,16.2161622 46.1171351,17.1467838 46.1171351,18.5882162 L46.1171351,22.4306486 C46.1171351,25.3082162 44.2729189,27.8352162 41.6324054,28.5738108 C39.4701622,29.1773243 37.2901351,28.6964054 35.6494865,27.2521351 L35.3954054,27.027 L20.8026757,27.027 L20.5476486,27.2521351 C19.0863514,28.5395676 17.1341081,29.0738378 15.1998378,28.7196757 C12.2341081,28.1782162 10.0809459,25.4682703 10.0809459,22.2755135 L10.0809459,18.0342703 Z M6.47745946,18.9189189 C6.47745946,18.4224865 6.881,18.018 7.37837838,18.018 L8.2792973,18.018 L8.2792973,18.0342703 L8.2792973,22.2757027 L8.2792973,23.4235135 L7.37837838,23.4235135 C6.881,23.4235135 6.47745946,23.0352973 6.47745946,22.5388649 L6.47745946,18.9189189 Z M19.0903243,46.8468378 L12.7837027,46.8468378 C12.4792973,46.8468378 12.1792432,46.8667027 11.882973,46.9 L11.882973,41.4415135 C11.882973,38.4604595 9.4587027,36.0361892 6.47764865,36.0361892 L5.57672973,36.0361892 C3.5892973,36.0361892 1.97305405,34.4199459 1.97305405,32.4325135 L1.97305405,25.2253514 C1.97305405,23.5514054 3.12521622,22.1523514 4.67581081,21.7497568 L4.67581081,22.5388649 C4.67581081,24.0289189 5.88851351,25.2253514 7.37856757,25.2253514 L8.79937838,25.2253514 C9.13443243,26.1262703 9.62462162,27.0063784 10.2372162,27.7442162 C10.9336216,33.1468919 14.1498378,37.947 18.9001892,40.6189189 L19.0903243,40.7297838 L19.0903243,46.8468378 Z M35.3062973,47.3071351 L28.0991351,52.9126216 L20.891973,47.3071351 L20.891973,41.7430811 L22.5992162,42.7034054 C24.2748649,43.6457568 26.1767838,44.1438919 28.0991351,44.1438919 C30.0216757,44.1438919 31.9234054,43.6457568 33.5990541,42.7034054 L35.3062973,41.7430811 L35.3062973,47.3071351 Z M36.4143784,39.0522432 L32.7161081,41.1333243 C29.9026757,42.7153243 26.2954054,42.7153243 23.4817838,41.1333243 L19.7835135,39.0522432 C16.1484324,37.0071081 13.5177568,33.5729459 12.4384324,29.5982703 C13.1834595,30.0216757 14.0005676,30.3325135 14.8770811,30.4929459 C17.2464865,30.9254324 19.6276216,30.320027 21.4725946,28.829027 L34.7256757,28.829027 C36.1886757,30.0154324 37.9526757,30.6335135 39.795,30.6325676 C40.5615946,30.6325676 41.3418108,30.5252973 42.1184324,30.3082973 C42.6950811,30.1471081 43.2391892,29.9155405 43.7509459,29.6327027 C42.6640541,33.5928108 40.036027,37.0152432 36.4143784,39.0522432 Z" fill="#25262C" fill-rule="nonzero"></path>
                        <path d="M10.0809459,18.0342703 C10.0809459,17.0315676 10.8963514,16.2161622 11.8990541,16.2161622 L15.4864595,16.2161622 L29.9170541,16.2161622 L44.299973,16.2161622 C45.4035135,16.2161622 46.1171351,17.1467838 46.1171351,18.5882162 L46.1171351,22.4306486 C46.1171351,25.3082162 44.2729189,27.8352162 41.6324054,28.5738108 C39.4701622,29.1773243 37.2901351,28.6964054 35.6494865,27.2521351 L35.3954054,27.027 L20.8026757,27.027 L20.5476486,27.2521351 C19.0863514,28.5395676 17.1341081,29.0738378 15.1998378,28.7196757 C12.2341081,28.1782162 10.0809459,25.4682703 10.0809459,22.2755135 L10.0809459,18.0342703 Z" id="Path" fill="#D6A64B"></path>
                        <rect id="Rectangle-path" fill="#25262C" fill-rule="nonzero" x="13.6846216" y="22.5225946" width="24.3242432" height="1.80183784"></rect>
                        <rect id="Rectangle-path" fill="#25262C" fill-rule="nonzero" x="39.8108919" y="22.5225946" width="2.70275676" height="1.80183784"></rect>
                    </g>
                </g>
            </g>
        </g>
    </g>
</svg>