<?xml version="1.0" encoding="UTF-8"?>
<svg width="80px" height="80px" viewBox="0 0 80 80" version="1.1" xmlns="http://www.w3.org/2000/svg" xmlns:xlink="http://www.w3.org/1999/xlink">
    <!-- Generator: Sketch 50.2 (55047) - http://www.bohemiancoding.com/sketch -->
    <title>x-box-gamepad</title>
    <desc>Created with Sketch.</desc>
    <defs></defs>
    <g id="Page-1" stroke="none" stroke-width="1" fill="none" fill-rule="evenodd">
        <g id="Landing" transform="translate(-452.000000, -2120.000000)">
            <g id="block-4" transform="translate(0.000000, 1922.000000)">
                <g id="icons">
                    <g transform="translate(346.000000, 168.000000)" id="x-box-gamepad">
                        <g transform="translate(106.000000, 30.000000)">
                            <path d="M40,80 C62.09139,80 80,62.09139 80,40 C80,17.90861 62.09139,0 40,0 C17.90861,0 0,17.90861 0,40 C0,62.09139 17.90861,80 40,80 Z" id="Oval" fill="#E8E9EB"></path>
                            <g transform="translate(18.000000, 26.000000)">
                                <circle id="Oval-8" fill="#D6A64B" cx="13.7142857" cy="9.42857143" r="4.28571429"></circle>
                                <circle id="Oval-8" fill="#D6A64B" cx="19.7142857" cy="18" r="4.28571429"></circle>
                                <circle id="Oval-8" fill="#D6A64B" cx="32.5714286" cy="18" r="4.28571429"></circle>
                                <path d="M41.1486563,3.53165625 C40.7005313,2.74303125 39.2878125,1.9351875 36.9495938,1.13053125 C35.115375,0.4993125 33.2199375,0.05840625 32.3402813,0.05840625 C30.8668125,0.05840625 29.5024688,1.0891875 28.9576875,1.55840625 L23.9965313,1.55840625 C23.988375,1.55840625 23.9803125,1.5585 23.97225,1.55878125 C23.9641875,1.55859375 23.9560313,1.55840625 23.947875,1.55840625 L18.9867188,1.55840625 C18.4419375,1.0891875 17.0775938,0.05840625 15.604125,0.05840625 C14.7244688,0.05840625 12.8290313,0.49921875 10.9948125,1.13053125 C8.65659375,1.9351875 7.243875,2.74303125 6.79575,3.53165625 C6.7003125,3.69975 -2.6075625,20.6993438 0.7171875,28.6089375 C1.514625,30.5060625 2.95771875,31.7423438 5.00625,32.2834688 C5.1075,32.3101875 5.21203125,32.3235 5.3206875,32.3235 C6.448875,32.3235 8.0113125,30.8963438 10.7033438,28.3442813 C11.8400625,27.266625 13.0154063,26.1523125 14.0446875,25.3204688 C15.4540313,24.1814063 15.9980625,24.0584063 16.166625,24.0584063 L31.7777813,24.0584063 C31.94625,24.0584063 32.490375,24.1814063 33.899625,25.320375 C34.9289063,26.1523125 36.1043438,27.2665313 37.2409688,28.3441875 C39.9330938,30.8964375 41.4953438,32.3236875 42.623625,32.3235 C42.7321875,32.3235 42.8369063,32.3101875 42.9380625,32.2834688 C44.9866875,31.7424375 46.4296875,30.5060625 47.227125,28.6090313 C50.551875,20.7 41.2441875,3.69984375 41.1486563,3.53165625 Z M45.8444062,28.0277813 C45.2339062,29.4799688 44.1722812,30.3942188 42.599625,30.8213438 C42.5041875,30.8018438 42.1058437,30.6711563 41.050875,29.7938438 C40.2323437,29.1132188 39.2806875,28.2109688 38.2730625,27.2556563 C35.1901875,24.333 33.2146875,22.5584063 31.777875,22.5584063 L16.166625,22.5584063 C14.7298125,22.5584063 12.7542187,24.333 9.67134375,27.2556563 C8.66371875,28.210875 7.7120625,29.113125 6.89353125,29.79375 C5.8385625,30.6709688 5.44021875,30.80175 5.34478125,30.82125 C3.772125,30.394125 2.71040625,29.479875 2.1,28.0275938 C0.9159375,25.2106875 1.48621875,20.3824688 3.74925,14.0649375 C5.45071875,9.3151875 7.64746875,5.0690625 8.1,4.2725625 C8.2366875,4.032 9.11971875,3.36196875 11.4829687,2.5486875 C13.2844687,1.92871875 14.9930625,1.5583125 15.604125,1.5583125 C16.6155,1.5583125 17.8041562,2.4890625 18.1757812,2.84671875 C18.31575,2.982375 18.5029687,3.0583125 18.697875,3.0583125 L23.947875,3.0583125 C23.9560312,3.0583125 23.9640937,3.05821875 23.97225,3.0579375 C23.9803125,3.058125 23.988375,3.0583125 23.9965312,3.0583125 L29.2465312,3.0583125 C29.4414375,3.0583125 29.62875,2.982375 29.768625,2.84671875 C30.1381875,2.48840625 31.3205625,1.5583125 32.3402812,1.5583125 C32.9513437,1.5583125 34.6599375,1.9288125 36.4614375,2.5486875 C38.8246875,3.36196875 39.707625,4.03190625 39.8444062,4.2725625 C40.2970312,5.06915625 42.493875,9.31565625 44.1951562,14.0650313 C46.4581875,20.3826563 47.0284687,25.2107813 45.8444062,28.0277813 Z" id="Shape" fill="#25262C" fill-rule="nonzero"></path>
                                <path d="M17.947875,19.5584063 C18.3620625,19.5584063 18.697875,19.2225938 18.697875,18.8084063 L18.697875,18.0584063 L19.447875,18.0584063 C19.8620625,18.0584063 20.197875,17.7225938 20.197875,17.3084063 C20.197875,16.8942188 19.8620625,16.5584063 19.447875,16.5584063 L18.697875,16.5584063 L18.697875,15.8084063 C18.697875,15.3942188 18.3620625,15.0584063 17.947875,15.0584063 C17.5336875,15.0584063 17.197875,15.3942188 17.197875,15.8084063 L17.197875,16.5584063 L16.447875,16.5584063 C16.0336875,16.5584063 15.697875,16.8942188 15.697875,17.3084063 C15.697875,17.7225938 16.0336875,18.0584063 16.447875,18.0584063 L17.197875,18.0584063 L17.197875,18.8084063 C17.197875,19.2225938 17.5336875,19.5584063 17.947875,19.5584063 Z" id="Shape" fill="#25262C" fill-rule="nonzero"></path>
                                <path d="M33.0839062,15.1191563 C32.7045,15.2852813 32.5315312,15.7275938 32.6976562,16.107 C32.8636875,16.4863125 32.947875,16.8905625 32.947875,17.3087813 C32.947875,18.9628125 31.6021875,20.3084063 29.94825,20.3084063 C28.2943125,20.3084063 26.948625,18.9627188 26.948625,17.3087813 C26.948625,15.6548438 28.2943125,14.3091563 29.94825,14.3091563 C30.3661875,14.3091563 30.7701562,14.3931563 31.1490937,14.559 C31.5286875,14.7250313 31.9708125,14.5520625 32.1368437,14.1724688 C32.302875,13.7929688 32.1298125,13.35075 31.7503125,13.1847188 C31.1805937,12.9355313 30.5743125,12.8091563 29.94825,12.8091563 C27.4671563,12.8091563 25.448625,14.8276875 25.448625,17.3087813 C25.448625,19.789875 27.4671563,21.8084063 29.94825,21.8084063 C32.4293437,21.8084063 34.447875,19.789875 34.447875,17.3087813 C34.447875,16.68225 34.3213125,16.0755 34.07175,15.5054063 C33.905625,15.1259063 33.4633125,14.9529375 33.0839062,15.1191563 Z" id="Shape" fill="#25262C" fill-rule="nonzero"></path>
                                <path d="M21.0839063,15.1191563 C20.7045,15.2852813 20.5315313,15.7275938 20.6976563,16.107 C20.8636875,16.4863125 20.947875,16.8905625 20.947875,17.3087813 C20.947875,18.9628125 19.6021875,20.3084063 17.94825,20.3084063 C16.2943125,20.3084063 14.948625,18.9627188 14.948625,17.3087813 C14.948625,15.6548438 16.2943125,14.3091563 17.94825,14.3091563 C18.3661875,14.3091563 18.7701563,14.3931563 19.1490938,14.559 C19.5286875,14.7250313 19.9709063,14.5520625 20.1368438,14.1724688 C20.302875,13.7929688 20.1298125,13.35075 19.7503125,13.1847188 C19.1805938,12.9355313 18.5743125,12.8091563 17.94825,12.8091563 C15.4671563,12.8091563 13.448625,14.8276875 13.448625,17.3087813 C13.448625,19.789875 15.4671563,21.8084063 17.94825,21.8084063 C20.4293438,21.8084063 22.447875,19.789875 22.447875,17.3087813 C22.447875,16.68225 22.3213125,16.0755 22.07175,15.5054063 C21.905625,15.1259063 21.4633125,14.9529375 21.0839063,15.1191563 Z" id="Shape" fill="#25262C" fill-rule="nonzero"></path>
                                <path d="M29.94825,15.808875 C29.9481562,15.808875 29.9479687,15.808875 29.947875,15.808875 C29.9477812,15.808875 29.9475937,15.808875 29.9475,15.808875 C29.1204375,15.808875 28.4475,16.4817188 28.4475,17.3087813 C28.4475,18.1358438 29.1203437,18.8086875 29.9475,18.8086875 C29.9475937,18.8086875 29.9477812,18.8086875 29.947875,18.8086875 C29.9479687,18.8086875 29.9481562,18.8086875 29.94825,18.8086875 C30.7753125,18.8086875 31.44825,18.1358438 31.44825,17.3087813 C31.44825,16.4817188 30.7754062,15.808875 29.94825,15.808875 Z" id="Shape" fill="#25262C" fill-rule="nonzero"></path>
                                <path d="M16.447875,9.80803125 C16.447875,9.18140625 16.3213125,8.57475 16.07175,8.00465625 C15.905625,7.62525 15.4632187,7.4521875 15.0839063,7.61840625 C14.7045,7.78453125 14.5315313,8.22684375 14.6976562,8.60625 C14.8636875,8.98546875 14.947875,9.3898125 14.947875,9.80803125 C14.947875,11.4620625 13.6021875,12.8076563 11.94825,12.8076563 C10.2943125,12.8076563 8.948625,11.4619688 8.948625,9.80803125 C8.948625,8.15409375 10.2943125,6.80840625 11.94825,6.80840625 C12.3661875,6.80840625 12.7701562,6.89240625 13.1490938,7.05825 C13.5287813,7.22428125 13.9708125,7.051125 14.1368438,6.67171875 C14.302875,6.29221875 14.1298125,5.85 13.7503125,5.68396875 C13.1805938,5.43478125 12.5743125,5.30840625 11.94825,5.30840625 C9.46715625,5.30840625 7.448625,7.3269375 7.448625,9.80803125 C7.448625,12.289125 9.46715625,14.3076563 11.94825,14.3076563 C14.4293438,14.3076563 16.447875,12.289125 16.447875,9.80803125 Z" id="Shape" fill="#25262C" fill-rule="nonzero"></path>
                                <path d="M11.94825,8.308125 C11.9481563,8.308125 11.9480625,8.308125 11.947875,8.308125 C11.9476875,8.308125 11.9476875,8.308125 11.9475,8.308125 C11.1204375,8.308125 10.4475,8.98096875 10.4475,9.80803125 C10.4475,10.6350938 11.1203437,11.3079375 11.9475,11.3079375 C11.9475937,11.3079375 11.9476875,11.3079375 11.947875,11.3079375 C11.9480625,11.3079375 11.9480625,11.3079375 11.94825,11.3079375 C12.7753125,11.3079375 13.44825,10.6350938 13.44825,9.80803125 C13.44825,8.98096875 12.7754062,8.308125 11.94825,8.308125 Z" id="Shape" fill="#25262C" fill-rule="nonzero"></path>
                                <path d="M32.947875,11.3084063 C33.7749375,11.3084063 34.447875,10.6354688 34.447875,9.80840625 C34.447875,8.98134375 33.7749375,8.30840625 32.947875,8.30840625 C32.1208125,8.30840625 31.447875,8.98134375 31.447875,9.80840625 C31.447875,10.6354688 32.1208125,11.3084063 32.947875,11.3084063 Z" id="Shape" fill="#25262C" fill-rule="nonzero"></path>
                                <path d="M38.947875,8.30840625 C38.1208125,8.30840625 37.447875,8.98134375 37.447875,9.80840625 C37.447875,10.6354688 38.1208125,11.3084063 38.947875,11.3084063 C39.7749375,11.3084063 40.447875,10.6354688 40.447875,9.80840625 C40.447875,8.98134375 39.7750313,8.30840625 38.947875,8.30840625 Z" id="Shape" fill="#25262C" fill-rule="nonzero"></path>
                                <path d="M35.947875,11.3084063 C35.1208125,11.3084063 34.447875,11.9813438 34.447875,12.8084063 C34.447875,13.6354688 35.1208125,14.3084063 35.947875,14.3084063 C36.7749375,14.3084063 37.447875,13.6354688 37.447875,12.8084063 C37.447875,11.9813438 36.7750313,11.3084063 35.947875,11.3084063 Z" id="Shape" fill="#25262C" fill-rule="nonzero"></path>
                                <path d="M35.947875,8.30840625 C36.7749375,8.30840625 37.447875,7.63546875 37.447875,6.80840625 C37.447875,5.98134375 36.7749375,5.30840625 35.947875,5.30840625 C35.1208125,5.30840625 34.447875,5.98134375 34.447875,6.80840625 C34.447875,7.63546875 35.1208125,8.30840625 35.947875,8.30840625 Z" id="Shape" fill="#25262C" fill-rule="nonzero"></path>
                                <path d="M26.197875,6.05840625 C26.197875,4.8178125 25.1885625,3.80840625 23.947875,3.80840625 C22.7071875,3.80840625 21.697875,4.8178125 21.697875,6.05840625 C21.697875,7.299 22.7071875,8.30840625 23.947875,8.30840625 C25.1885625,8.30840625 26.197875,7.299 26.197875,6.05840625 Z M23.947875,6.80840625 C23.5343437,6.80840625 23.197875,6.4719375 23.197875,6.05840625 C23.197875,5.644875 23.5343437,5.30840625 23.947875,5.30840625 C24.3614063,5.30840625 24.697875,5.644875 24.697875,6.05840625 C24.697875,6.4719375 24.3615,6.80840625 23.947875,6.80840625 Z" id="Shape" fill="#25262C" fill-rule="nonzero"></path>
                            </g>
                        </g>
                    </g>
                </g>
            </g>
        </g>
    </g>
</svg>