<?xml version="1.0" encoding="UTF-8"?>
<svg width="16px" height="15px" viewBox="0 0 16 15" version="1.1" xmlns="http://www.w3.org/2000/svg" xmlns:xlink="http://www.w3.org/1999/xlink">
    <!-- Generator: Sketch 50.2 (55047) - http://www.bohemiancoding.com/sketch -->
    <title>Shape</title>
    <desc>Created with Sketch.</desc>
    <defs></defs>
    <g id="Page-1" stroke="none" stroke-width="1" fill="none" fill-rule="evenodd">
        <g id="Landing" transform="translate(-992.000000, -1532.000000)" fill="#FFCA54" fill-rule="nonzero">
            <g id="block-3" transform="translate(0.000000, 1467.000000)">
                <g id="stars" transform="translate(893.000000, 65.000000)">
                    <path d="M114.532787,5.32489918 C114.248281,5.28430118 109.931229,4.66812714 109.665709,4.63023067 L107.489057,0.29813921 C107.289583,-0.0992108732 106.710601,-0.0995485645 106.510783,0.29813921 L104.334132,4.63023067 L99.4670535,5.32489918 C99.2615814,5.35420328 99.0909086,5.49562089 99.0266962,5.68956825 C98.9625602,5.88355313 99.0160769,6.09648625 99.1647472,6.23884189 L102.686574,9.6108395 L101.855174,14.3723242 C101.779005,14.8089215 102.247019,15.1434985 102.646656,14.9371692 L106.999958,12.6891207 C111.736167,15.1349437 111.416824,14.998629 111.606978,14.998629 C111.943167,14.998629 112.202041,14.7009729 112.144666,14.3722492 L111.313267,9.6108395 L114.835131,6.23884189 C115.15818,5.92951667 114.979638,5.38868531 114.532787,5.32489918 Z" id="Shape"></path>
                </g>
            </g>
        </g>
    </g>
</svg>