<?xml version="1.0" encoding="UTF-8"?>
<svg width="48px" height="49px" viewBox="0 0 48 49" version="1.1" xmlns="http://www.w3.org/2000/svg" xmlns:xlink="http://www.w3.org/1999/xlink">
    <!-- Generator: Sketch 50.2 (55047) - http://www.bohemiancoding.com/sketch -->
    <title>GD</title>
    <desc>Created with Sketch.</desc>
    <defs></defs>
    <g id="Page-1" stroke="none" stroke-width="1" fill="none" fill-rule="evenodd">
        <g id="Landing" transform="translate(-1275.000000, -1092.000000)" fill-rule="nonzero">
            <g id="block-2" transform="translate(0.000000, 899.000000)">
                <g transform="translate(1275.000000, 191.000000)" id="GD">
                    <g transform="translate(0.000000, 2.000000)">
                        <g id="Group" transform="translate(9.290323, 10.064516)" fill="#D6A64B">
                            <path d="M11.1166452,10.5042581 C11.0787097,10.2015484 11.1267097,9.91277419 11.2289032,9.64954839 L11.2289032,9.65032258 L10.0939355,8.51612903 L12.4165161,7.74193548 L13.3385806,7.87354839 C12.6023226,7.05135484 12.9127742,5.73135484 13.9672258,5.34812903 L18.8833548,3.56051613 C16.9006452,1.37883871 14.0485161,0 10.868129,0 C4.88206452,0 0.0294193548,4.85264516 0.0294193548,10.8387097 C0.0294193548,16.8247742 4.88206452,21.6774194 10.868129,21.6774194 C13.0691613,21.6774194 15.1130323,21.0170323 16.8232258,19.8905806 L11.6423226,14.7096774 L11.1166452,10.5042581 Z" id="Shape"></path>
                            <path d="M14.9775484,10.5406452 L16.2874839,13.1612903 L19.3842581,15.483871 L21.3623226,13.5058065 C21.4188387,13.2820645 21.4738065,13.0575484 21.5163871,12.8283871 L20.6748387,11.3550968 L14.9775484,10.5406452 Z" id="Shape"></path>
                        </g>
                        <path d="M46.2147097,38.5594839 L44.1220645,39.0828387 L41.0430968,32.3086452 L40.0807742,23.6469677 L41.5052903,23.8505806 C41.5997419,23.8645161 41.6941935,23.8699355 41.7870968,23.8699355 C42.627871,23.8699355 43.3896774,23.3349677 43.6614194,22.5174194 C43.848,21.96 43.7775484,21.3530323 43.4686452,20.8529032 C43.1597419,20.352 42.6472258,20.0167742 42.0650323,19.9331613 L40.2874839,19.6784516 L40.2874839,3.87096774 C40.2874839,1.73651613 38.5509677,0 36.4165161,0 L3.9003871,0 C1.76593548,0 0.0294193548,1.73651613 0.0294193548,3.87096774 C0.0294193548,5.73987097 1.36180645,7.30374194 3.12619355,7.66374194 L3.12619355,48 L34.0629677,48 L34.1233548,48.212129 L35.6129032,47.7870968 L34.2836129,43.1372903 L39.7424516,41.7723871 L44.7739355,40.5143226 L45.1989677,40.4082581 L46.5212903,44.3736774 L47.9891613,43.8836129 L46.2147097,38.5594839 Z M42.5945806,39.4637419 L35.7336774,41.1785806 L33.9863226,35.9380645 L28.4477419,31.1938065 L21.668129,24.4134194 L21.1749677,20.472 C21.1587097,20.3411613 21.1703226,20.2134194 21.2028387,20.0910968 L21.2407742,19.9943226 C21.3150968,19.8030968 21.4405161,19.6459355 21.5976774,19.5344516 C22.0018065,19.2704516 22.5886452,19.3447742 22.9130323,19.7016774 C22.9656774,19.7628387 23.0144516,19.8286452 23.0516129,19.9037419 L23.756129,21.3135484 L24.9661935,23.7344516 L28.7465806,26.5695484 L31.9618065,23.3543226 L31.4221935,22.4090323 L38.4975484,23.420129 L39.5171613,32.6005161 L42.5945806,39.4637419 Z M13.1976774,26.1754839 C13.6985806,26.2676129 14.211871,26.3225806 14.7390968,26.3225806 C16.7171613,26.3225806 18.6,25.6327742 20.1058065,24.4056774 L20.1963871,25.1341935 L25.6490323,30.5837419 C24.3329032,32.283871 22.3269677,33.2903226 20.1584516,33.2903226 C16.316129,33.2903226 13.1907097,30.1649032 13.1907097,26.3225806 C13.1907097,26.2730323 13.1969032,26.2250323 13.1976774,26.1754839 Z M38.0129032,19.0529032 L38.0469677,19.3579355 L33.2787097,18.6766452 L28.9354839,18.0557419 L28.3052903,16.9532903 L25.0335484,17.4983226 L24.2941935,17.3930323 L23.0717419,17.2180645 C22.9966452,17.0554839 22.9788387,16.8712258 23.0245161,16.6885161 C23.0887742,16.4307097 23.2699355,16.2301935 23.5223226,16.1388387 L29.3729032,14.0113548 L38.0129032,19.0529032 Z M24.435871,19.2108387 C24.3917419,19.1233548 24.3437419,19.0381935 24.2903226,18.9576774 L35.0694194,20.4975484 L38.7073548,21.0170323 L38.5633548,21.8647742 L24.7780645,19.8952258 L24.435871,19.2108387 Z M19.1458065,19.4376774 L19.6621935,19.9540645 C19.6250323,20.187871 19.6087742,20.4255484 19.6389677,20.6647742 L19.7589677,21.6270968 C19.3254194,20.9713548 19.008,20.2490323 18.8183226,19.4849032 C18.9259355,19.4647742 19.0366452,19.4531613 19.1458065,19.4376774 Z M29.5254194,12.3096774 L22.9927742,14.6849032 C22.8929032,14.7212903 22.8054194,14.7785806 22.7125161,14.8273548 C22.3703226,13.9107097 21.8763871,13.0745806 21.264,12.3445161 C22.4523871,11.4046452 23.9489032,10.8387097 25.5778065,10.8387097 C27.4335484,10.8387097 29.1700645,11.5943226 30.4482581,12.8485161 L29.5254194,12.3096774 Z M21.5310968,16.2905806 C21.5287742,16.2983226 21.524129,16.3052903 21.5225806,16.3138065 C21.459871,16.5646452 21.4544516,16.8178065 21.4738065,17.0686452 L18.9770323,17.9009032 C18.8570323,17.9171613 18.7362581,17.9303226 18.6185806,17.952 C18.6170323,17.9024516 18.6100645,17.8552258 18.6100645,17.8064516 C18.6100645,16.1527742 19.1914839,14.6345806 20.1569032,13.4384516 C20.8141935,14.252129 21.2934194,15.219871 21.5310968,16.2905806 Z M17.0616774,17.8064516 C17.0616774,17.9976774 17.0818065,18.1858065 17.0941935,18.3754839 C14.5323871,19.3517419 12.6061935,21.5109677 11.9210323,24.1734194 C9.48,23.0887742 7.77135484,20.6454194 7.77135484,17.8064516 C7.77135484,13.964129 10.8967742,10.8387097 14.7390968,10.8387097 C16.3525161,10.8387097 17.8567742,11.3992258 19.0529032,12.3445161 C17.811871,13.824 17.0616774,15.7285161 17.0616774,17.8064516 Z M17.3434839,19.9501935 C17.6593548,21.1695484 18.2407742,22.2990968 19.0575484,23.2676129 C17.8374194,24.2345806 16.3246452,24.7741935 14.7390968,24.7741935 C14.2807742,24.7741935 13.8332903,24.7269677 13.3997419,24.6418065 C13.9153548,22.5367742 15.3778065,20.8103226 17.3434839,19.9501935 Z M30.0317419,23.0965161 L28.6018065,24.5264516 L26.1886452,22.7163871 L25.6211613,21.5814194 L29.4805161,22.1326452 L30.0317419,23.0965161 Z M42.1509677,21.6658065 C42.1904516,21.7292903 42.2485161,21.8609032 42.1927742,22.028129 C42.1269677,22.2247742 41.9272258,22.347871 41.7251613,22.3169032 L40.0978065,22.0846452 L40.2418065,21.2369032 L41.8459355,21.4660645 C42.0193548,21.4908387 42.1114839,21.6015484 42.1509677,21.6658065 Z M38.7390968,3.87096774 L38.7390968,17.684129 L37.1907097,16.7806452 L37.1907097,6.19354839 L36.4165161,6.19354839 C35.136,6.19354839 34.0939355,5.15148387 34.0939355,3.87096774 C34.0939355,2.59045161 35.136,1.5483871 36.4165161,1.5483871 C37.6970323,1.5483871 38.7390968,2.59045161 38.7390968,3.87096774 Z M1.57780645,3.87096774 C1.57780645,2.59045161 2.61987097,1.5483871 3.9003871,1.5483871 L33.339871,1.5483871 C32.8482581,2.19716129 32.5455484,2.99612903 32.5455484,3.87096774 C32.5455484,4.74580645 32.8482581,5.54477419 33.339871,6.19354839 L3.9003871,6.19354839 C2.61987097,6.19354839 1.57780645,5.15148387 1.57780645,3.87096774 Z M32.355871,42.0232258 L33.620129,46.4516129 L4.67458065,46.4516129 L4.67458065,7.74193548 L35.6423226,7.74193548 L35.6423226,15.8779355 L33.452129,14.6005161 C32.1538065,11.4139355 29.0291613,9.29032258 25.5778065,9.29032258 C23.5207742,9.29032258 21.6325161,10.0234839 20.1584516,11.2420645 C18.6743226,10.0165161 16.7767742,9.29032258 14.7390968,9.29032258 C10.0436129,9.29032258 6.22296774,13.1109677 6.22296774,17.8064516 C6.22296774,21.4188387 8.48825806,24.5055484 11.6694194,25.7411613 C11.6562581,25.9339355 11.6423226,26.1267097 11.6423226,26.3225806 C11.6423226,31.0180645 15.4629677,34.8387097 20.1584516,34.8387097 C22.7442581,34.8387097 25.1442581,33.6735484 26.7553548,31.6885161 L27.3963871,32.3295484 L32.6523871,36.8353548 L34.2263226,41.5556129 L32.355871,42.0232258 Z" id="Shape" fill="#333333"></path>
                    </g>
                </g>
            </g>
        </g>
    </g>
</svg>