<?xml version="1.0" encoding="UTF-8"?>
<svg width="48px" height="48px" viewBox="0 0 48 48" version="1.1" xmlns="http://www.w3.org/2000/svg" xmlns:xlink="http://www.w3.org/1999/xlink">
    <!-- Generator: Sketch 50.2 (55047) - http://www.bohemiancoding.com/sketch -->
    <title>GP</title>
    <desc>Created with Sketch.</desc>
    <defs></defs>
    <g id="Page-1" stroke="none" stroke-width="1" fill="none" fill-rule="evenodd">
        <g id="Landing" transform="translate(-975.000000, -1236.000000)" fill-rule="nonzero">
            <g id="block-2" transform="translate(0.000000, 899.000000)">
                <g id="block-3" transform="translate(975.000000, 331.000000)">
                    <g id="GP" transform="translate(0.000000, 6.000000)">
                        <path d="M41.4449032,17.0322581 C40.8619355,17.5803871 40.2030968,18.0495484 39.483871,18.4180645 L39.483871,20.1290323 L39.0967742,20.1290323 C39.7378065,20.1290323 40.2580645,20.6492903 40.2580645,21.2903226 C40.2580645,21.9313548 39.7378065,22.4516129 39.0967742,22.4516129 C39.7378065,22.4516129 40.2580645,22.971871 40.2580645,23.6129032 C40.2580645,24.2539355 39.7378065,24.7741935 39.0967742,24.7741935 L32.1290323,24.7741935 C31.488,24.7741935 30.9677419,24.2539355 30.9677419,23.6129032 C30.9677419,22.971871 31.488,22.4516129 32.1290323,22.4516129 C31.488,22.4516129 30.9677419,21.9313548 30.9677419,21.2903226 C30.9677419,20.6492903 31.488,20.1290323 32.1290323,20.1290323 L31.7419355,20.1290323 L31.7419355,18.4180645 C31.0227097,18.0495484 30.363871,17.5803871 29.7809032,17.0322581 L2.32258065,17.0322581 L2.32258065,23.9086452 L9.22916129,30.4087742 L6.19354839,27.552 L6.19354839,20.9032258 L24.7741935,20.9032258 L24.7741935,33.2903226 L12.2903226,33.2903226 L24.6286452,44.9032258 L45.6774194,44.9032258 C46.9579355,44.9032258 48,43.8611613 48,42.5806452 L48,17.0322581 L41.4449032,17.0322581 Z" id="Shape" fill="#D6A64B"></path>
                        <g id="Group" fill="#333333">
                            <circle id="Oval" cx="6.19354839" cy="14.7096774" r="1"></circle>
                            <circle id="Oval" cx="9.29032258" cy="14.7096774" r="1"></circle>
                            <circle id="Oval" cx="12.3870968" cy="14.7096774" r="1"></circle>
                            <path d="M14.2428387,34.0645161 L25.5483871,34.0645161 L25.5483871,20.1290323 L5.41935484,20.1290323 L5.41935484,25.7605161 L2.43251613,22.9494194 C1.67922581,22.2402581 1.03896774,22.4059355 0.798967742,22.508129 C0.558193548,22.6110968 0,22.964129 0,24 L0,45.6774194 C0,46.9579355 1.04206452,48 2.32258065,48 L25.5483871,48 C26.5618065,48 26.9117419,47.4990968 27.0301935,47.1994839 C27.1486452,46.9006452 27.2384516,46.2952258 26.499871,45.6007742 L14.2428387,34.0645161 Z M6.96774194,21.6774194 L24,21.6774194 L24,32.516129 L12.5976774,32.516129 L6.96774194,27.2175484 L6.96774194,21.6774194 Z M2.32258065,46.4516129 C1.89522581,46.4516129 1.5483871,46.1047742 1.5483871,45.6774194 L1.5483871,44.9032258 L3.09677419,44.9032258 L3.09677419,43.3548387 L1.5483871,43.3548387 L1.5483871,41.8064516 L3.09677419,41.8064516 L3.09677419,40.2580645 L1.5483871,40.2580645 L1.5483871,38.7096774 L3.09677419,38.7096774 L3.09677419,37.1612903 L1.5483871,37.1612903 L1.5483871,35.6129032 L3.09677419,35.6129032 L3.09677419,34.0645161 L1.5483871,34.0645161 L1.5483871,32.516129 L3.09677419,32.516129 L3.09677419,30.9677419 L1.5483871,30.9677419 L1.5483871,29.4193548 L3.09677419,29.4193548 L3.09677419,27.8709677 L1.5483871,27.8709677 L1.5483871,24.243871 L25.1450323,46.4516129 L2.32258065,46.4516129 Z" id="Shape"></path>
                            <path d="M5.41935484,33.2020645 L5.41935484,42.5806452 L15.384,42.5806452 L5.41935484,33.2020645 Z M6.96774194,36.7858065 L11.4797419,41.0322581 L6.96774194,41.0322581 L6.96774194,36.7858065 Z" id="Shape"></path>
                            <path d="M48,4.64516129 L48,0 L43.3548387,0 L43.3548387,1.5483871 L27.8709677,1.5483871 L27.8709677,0 L23.2258065,0 L23.2258065,4.64516129 L27.8709677,4.64516129 L27.8709677,3.09677419 L30.4885161,3.09677419 C27.9809032,4.76206452 26.3225806,7.60877419 26.3225806,10.8387097 L4.64516129,10.8387097 C3.36464516,10.8387097 2.32258065,11.8807742 2.32258065,13.1612903 L2.32258065,18.5806452 L3.09677419,18.5806452 L30.524129,18.5806452 C30.6727742,18.6781935 30.812129,18.7873548 30.9677419,18.8771613 L30.9677419,19.752 C30.500129,20.1058065 30.1935484,20.6609032 30.1935484,21.2910968 C30.1935484,21.7285161 30.3445161,22.128 30.5899355,22.4523871 C30.3445161,22.776 30.1935484,23.1754839 30.1935484,23.6129032 C30.1935484,24.6805161 31.0614194,25.5483871 32.1290323,25.5483871 L39.0967742,25.5483871 C40.1643871,25.5483871 41.0322581,24.6805161 41.0322581,23.6129032 C41.0322581,23.1754839 40.8812903,22.776 40.635871,22.4516129 C40.8812903,22.1272258 41.0322581,21.7277419 41.0322581,21.2903226 C41.0322581,20.660129 40.7256774,20.1050323 40.2580645,19.7512258 L40.2580645,18.8763871 C40.4136774,18.7865806 40.5530323,18.6774194 40.7016774,18.579871 L47.2258065,18.579871 L48,18.579871 L48,13.1605161 C48,11.88 46.9579355,10.8379355 45.6774194,10.8379355 L44.9032258,10.8379355 C44.9032258,7.608 43.2449032,4.76129032 40.7372903,3.096 L43.3548387,3.096 L43.3548387,4.6443871 L48,4.6443871 L48,4.64516129 Z M24.7741935,3.09677419 L24.7741935,1.5483871 L26.3225806,1.5483871 L26.3225806,3.09677419 L24.7741935,3.09677419 Z M3.87096774,13.1612903 C3.87096774,12.7339355 4.21780645,12.3870968 4.64516129,12.3870968 L26.4665806,12.3870968 C26.76,14.1344516 27.5442581,15.7354839 28.7140645,17.0322581 L3.87096774,17.0322581 L3.87096774,13.1612903 Z M35.6129032,12.3870968 C34.7589677,12.3870968 34.0645161,11.6926452 34.0645161,10.8387097 C34.0645161,9.98477419 34.7589677,9.29032258 35.6129032,9.29032258 C36.4668387,9.29032258 37.1612903,9.98477419 37.1612903,10.8387097 C37.1612903,11.6926452 36.4668387,12.3870968 35.6129032,12.3870968 Z M39.0967742,20.9032258 C39.3096774,20.9032258 39.483871,21.0774194 39.483871,21.2903226 C39.483871,21.5032258 39.3096774,21.6774194 39.0967742,21.6774194 L32.1290323,21.6774194 C31.916129,21.6774194 31.7419355,21.5032258 31.7419355,21.2903226 C31.7419355,21.0774194 31.916129,20.9032258 32.1290323,20.9032258 L39.0967742,20.9032258 Z M39.0967742,24 L32.1290323,24 C31.916129,24 31.7419355,23.8258065 31.7419355,23.6129032 C31.7419355,23.4 31.916129,23.2258065 32.1290323,23.2258065 L39.0967742,23.2258065 C39.3096774,23.2258065 39.483871,23.4 39.483871,23.6129032 C39.483871,23.8258065 39.3096774,24 39.0967742,24 Z M45.6774194,12.3870968 C46.1047742,12.3870968 46.4516129,12.7339355 46.4516129,13.1612903 L46.4516129,17.0322581 L42.5117419,17.0322581 C43.6815484,15.7354839 44.4650323,14.1344516 44.7592258,12.3870968 L45.6774194,12.3870968 Z M43.3548387,10.8387097 C43.3548387,13.7550968 41.736,16.3950968 39.1308387,17.7274839 L38.7096774,17.9442581 L38.7096774,19.3548387 L36.3870968,19.3548387 L36.3870968,13.8255484 C37.7194839,13.4794839 38.7096774,12.2779355 38.7096774,10.8387097 C38.7096774,9.13083871 37.3207742,7.74193548 35.6129032,7.74193548 C33.9050323,7.74193548 32.516129,9.13083871 32.516129,10.8387097 C32.516129,12.2779355 33.5063226,13.4794839 34.8387097,13.8255484 L34.8387097,19.3548387 L32.516129,19.3548387 L32.516129,17.9442581 L32.0949677,17.7282581 C29.4898065,16.3950968 27.8709677,13.7550968 27.8709677,10.8387097 C27.8709677,6.56980645 31.344,3.09677419 35.6129032,3.09677419 C39.8818065,3.09677419 43.3548387,6.56980645 43.3548387,10.8387097 Z M46.4516129,1.5483871 L46.4516129,3.09677419 L44.9032258,3.09677419 L44.9032258,1.5483871 L46.4516129,1.5483871 Z" id="Shape"></path>
                            <rect id="Rectangle-path" x="27.0967742" y="27.8709677" width="17.8064516" height="1.5483871"></rect>
                            <rect id="Rectangle-path" x="27.0967742" y="30.9677419" width="17.8064516" height="1.5483871"></rect>
                            <rect id="Rectangle-path" x="27.0967742" y="34.0645161" width="17.8064516" height="1.5483871"></rect>
                            <rect id="Rectangle-path" x="27.0967742" y="37.1612903" width="17.8064516" height="1.5483871"></rect>
                        </g>
                    </g>
                </g>
            </g>
        </g>
    </g>
</svg>