<?xml version="1.0" encoding="UTF-8"?>
<svg width="48px" height="48px" viewBox="0 0 48 48" version="1.1" xmlns="http://www.w3.org/2000/svg" xmlns:xlink="http://www.w3.org/1999/xlink">
    <!-- Generator: Sketch 50.2 (55047) - http://www.bohemiancoding.com/sketch -->
    <title>PD</title>
    <desc>Created with Sketch.</desc>
    <defs></defs>
    <g id="Page-1" stroke="none" stroke-width="1" fill="none" fill-rule="evenodd">
        <g id="Landing" transform="translate(-975.000000, -1094.000000)" fill-rule="nonzero">
            <g id="block-2" transform="translate(0.000000, 899.000000)">
                <g id="block-1" transform="translate(975.000000, 191.000000)">
                    <g id="PD" transform="translate(0.000000, 4.000000)">
                        <path d="M26.0240964,48 C23.8473253,48 21.8633253,46.9436145 20.6480964,45.1886265 C19.5307952,46.0129157 18.1844819,46.4578313 16.7710843,46.4578313 C15.506506,46.4578313 14.2912771,46.0977349 13.2302651,45.4137831 C12.6211084,45.594988 11.9988434,45.686747 11.373494,45.686747 C7.75942169,45.686747 4.81927711,42.7466024 4.81927711,39.1325301 C4.81927711,38.3190361 4.96886747,37.5255904 5.26573494,36.7676145 C4.47768675,35.6618795 4.04819277,34.3286747 4.04819277,32.9638554 C4.04819277,30.0483855 5.99055422,27.492241 8.74178313,26.678747 C9.17513253,23.4579277 11.9209639,21.0120482 15.2289157,21.0120482 C15.826506,21.0120482 16.4217831,21.0953253 17.0024096,21.2611084 C18.021012,20.1299277 19.4822169,19.4698795 21.0120482,19.4698795 C22.5156627,19.4698795 23.9336867,20.0944578 24.9461205,21.1716627 C26.3618313,20.069012 28.0859759,19.4698795 29.8795181,19.4698795 C34.0549398,19.4698795 37.4808675,22.5943133 37.9203855,26.6833735 C40.6654458,27.5007229 42.6024096,30.0537831 42.6024096,32.9638554 C42.6024096,34.7319518 41.8968675,36.4028916 40.6500241,37.632 C40.9222169,38.3614458 41.060241,39.1232771 41.060241,39.9036145 C41.060241,43.5176867 38.1200964,46.4578313 34.5060241,46.4578313 C33.306988,46.4578313 32.1603855,46.1386024 31.1464096,45.5271325 C29.9080482,47.0885783 28.0458795,48 26.0240964,48 Z" id="Shape" fill="#D6A64B"></path>
                        <g id="Group" fill="#333333">
                            <path d="M34.5060241,33.3493976 L34.5060241,34.8915663 C37.1392771,34.8915663 39.3006265,36.9341687 39.4987952,39.5180723 L39.497253,39.5180723 C39.506506,39.6460723 39.5180723,39.7740723 39.5180723,39.9036145 C39.5180723,42.6671807 37.2695904,44.9156627 34.5060241,44.9156627 C33.3833253,44.9156627 32.3184578,44.5478554 31.4270843,43.8523373 L31.4224578,43.858506 C30.2049157,42.9116145 29.4777831,41.4511807 29.4777831,39.9036145 L27.9356145,39.9036145 C27.9356145,42.011759 28.9596145,44.004241 30.6752771,45.2333494 L30.6868434,45.2171566 C31.808,46.0267952 33.1219277,46.4578313 34.5060241,46.4578313 C38.1200964,46.4578313 41.060241,43.5176867 41.060241,39.9036145 C41.060241,36.2895422 38.1200964,33.3493976 34.5060241,33.3493976 Z" id="Shape"></path>
                            <path d="M20.1569157,35.8885783 C19.4382651,36.5470843 18.5530602,36.9727229 17.6046265,37.1315663 C17.0887711,35.5215422 15.972241,34.1451566 14.4239036,33.3293494 L13.705253,34.6941687 C15.3584578,35.565494 16.3855422,37.2657349 16.3855422,39.1325301 C16.3855422,41.2961928 15.0045301,43.1383133 13.0799036,43.8392289 C12.8084819,43.9371566 12.5332048,44.0111807 12.2563855,44.0620723 C12.2378795,44.0651566 12.2193735,44.0674699 12.2008675,44.0705542 C11.9255904,44.1175904 11.6495422,44.1445783 11.373494,44.1445783 C8.60992771,44.1445783 6.36144578,41.8960964 6.36144578,39.1325301 C6.36144578,38.390747 6.52568675,37.6697831 6.84954217,36.9873735 L5.45619277,36.3257831 C5.03363855,37.2163855 4.81927711,38.1601928 4.81927711,39.1325301 C4.81927711,42.7466024 7.75942169,45.686747 11.373494,45.686747 C11.5770602,45.686747 11.7798554,45.6751807 11.9826506,45.6559036 C12.0898313,45.6458795 12.1939277,45.6281446 12.2995663,45.613494 C12.3866988,45.6011566 12.4730602,45.5895904 12.5601928,45.5733976 C12.7005301,45.5471807 12.8385542,45.5147952 12.9758072,45.4800964 C13.0220723,45.4685301 13.0675663,45.4577349 13.1130602,45.4446265 C13.2680482,45.4022169 13.4199518,45.3536386 13.5695422,45.2996627 C13.5849639,45.2942651 13.6003855,45.2904096 13.6158072,45.285012 L13.6150361,45.2826988 C16.1264578,44.3651084 17.9277108,41.9577831 17.9277108,39.1325301 C17.9277108,38.9682892 17.9061205,38.8086747 17.8945542,38.646747 C19.1213494,38.4339277 20.2679518,37.878747 21.1986506,37.0251566 L20.1569157,35.8885783 Z" id="Shape"></path>
                            <path d="M44.9156627,2.5060241 L46.7662651,3.8939759 L47.6915663,2.66024096 L44.1445783,0 L40.5975904,2.66024096 L41.5228916,3.8939759 L43.373494,2.5060241 L43.373494,7.90361446 C43.373494,10.029494 41.6439518,11.7590361 39.5180723,11.7590361 L36.4337349,11.7590361 C33.9940241,11.7590361 31.9298313,13.3875663 31.2636145,15.6136867 L30.1594217,15.6129157 L30.1308916,17.1550843 L31.0361446,17.1558554 L31.0361446,17.1566265 L31.0361446,19.5608675 C30.6575422,19.5068916 30.2735422,19.4698795 29.8795181,19.4698795 C27.867759,19.4698795 25.9485301,20.2293976 24.448,21.6011566 L24.4287229,21.5803373 C22.747759,23.1117108 21.7831325,25.2938795 21.7831325,27.5662651 C21.7831325,32.0308434 25.4149398,35.6626506 29.8795181,35.6626506 L29.8795181,34.1204819 C26.2654458,34.1204819 23.3253012,31.1803373 23.3253012,27.5662651 C23.3253012,25.7750361 24.0701687,24.0570602 25.3663614,22.8225542 L25.3771566,22.8341205 C26.6085783,21.658988 28.2070361,21.0120482 29.8795181,21.0120482 C30.2750843,21.0120482 30.6606265,21.0513735 31.0361446,21.1184578 L31.0361446,24.0963855 C31.0361446,26.2222651 29.3066024,27.9518072 27.1807229,27.9518072 L26.4096386,27.9518072 L26.4096386,29.4939759 L27.1807229,29.4939759 C30.1563373,29.4939759 32.5783133,27.072 32.5783133,24.0963855 L32.5783133,21.594988 C34.7766747,22.5858313 36.3265542,24.749494 36.4206265,27.3249157 L37.961253,27.2693976 C37.8363373,23.844241 35.6279518,21.0089639 32.5783133,19.9371566 L32.5783133,17.1566265 C32.5783133,15.030747 34.3078554,13.3012048 36.4337349,13.3012048 L39.5180723,13.3012048 C42.4936867,13.3012048 44.9156627,10.8792289 44.9156627,7.90361446 L44.9156627,2.5060241 Z" id="Shape"></path>
                            <rect id="Rectangle-path" x="35.6626506" y="30.2650602" width="2.31325301" height="1.54216867"></rect>
                            <path d="M27.556241,16.4233253 L28.333494,15.0916627 C27.7767711,14.7662651 27.3048675,14.3036145 26.9686747,13.7522892 L25.6524337,14.554988 C26.121253,15.323759 26.778988,15.9699277 27.556241,16.4233253 Z" id="Shape"></path>
                            <path d="M47.8133976,19.6086747 L46.3252048,20.0104096 C46.4131084,20.3365783 46.4578313,20.6735422 46.4578313,21.0120482 L46.4578313,22.1093012 L48,22.1093012 L48,21.0120482 C48,20.5378313 47.9375422,20.0651566 47.8133976,19.6086747 Z" id="Shape"></path>
                            <rect id="Rectangle-path" x="24.8674699" y="5.02592771" width="1.54216867" height="2.31325301"></rect>
                            <path d="M24.8674699,11.7590361 C24.8674699,11.8392289 24.869012,11.9194217 24.8728675,11.9996145 L26.413494,11.931759 L26.4096386,9.65243373 L24.8674699,9.65243373 L24.8674699,11.7590361 Z" id="Shape"></path>
                            <rect id="Rectangle-path" x="39.3985542" y="15.6144578" width="2.31325301" height="1.54216867"></rect>
                            <rect id="Rectangle-path" x="40.2891566" y="30.2650602" width="2.31325301" height="1.54216867"></rect>
                            <path d="M44.4476145,29.7916145 L45.1901687,31.1425542 C45.9782169,30.7092048 46.6529157,30.08 47.1417831,29.3235663 L45.8448193,28.4877108 C45.4955181,29.029012 45.0120482,29.4800964 44.4476145,29.7916145 Z" id="Shape"></path>
                            <rect id="Rectangle-path" x="34.7720482" y="15.6144578" width="2.31325301" height="1.54216867"></rect>
                            <path d="M46.4994699,17.2846265 C45.8748916,16.6315181 45.093012,16.1418795 44.2371084,15.8681446 L43.7675181,17.3362892 C44.3782169,17.5321446 44.9380241,17.882988 45.385253,18.3502651 L46.4994699,17.2846265 Z" id="Shape"></path>
                            <path d="M46.4578313,26.4096386 C46.4578313,26.5006265 46.454747,26.5908434 46.4478072,26.6818313 L47.9868916,26.789012 C47.9953735,26.6633253 48,26.5368675 48,26.4096386 L48,24.4225542 L46.4578313,24.4225542 L46.4578313,26.4096386 Z" id="Shape"></path>
                            <polygon id="Shape" points="24.8674699 2.5060241 24.8674699 2.7126747 26.4096386 2.7126747 26.4096386 2.5060241 28.260241 3.8939759 29.1855422 2.66024096 25.6385542 0 22.0915663 2.66024096 23.0168675 3.8939759"></polygon>
                            <path d="M7.13253012,16.3855422 L7.13253012,14.8433735 C7.13253012,13.1423614 8.51585542,11.7590361 10.2168675,11.7590361 L14.8433735,11.7590361 C16.5443855,11.7590361 17.9277108,13.1423614 17.9277108,14.8433735 L17.9277108,26.4096386 L19.4698795,26.4096386 L19.4698795,14.8433735 C19.4698795,12.2918554 17.3948916,10.2168675 14.8433735,10.2168675 L14.0722892,10.2168675 L14.0722892,8.6746988 L12.5301205,8.6746988 L12.5301205,10.2168675 L10.2168675,10.2168675 C7.6653494,10.2168675 5.59036145,12.2918554 5.59036145,14.8433735 L5.59036145,16.3855422 C5.59036145,17.2360482 4.8986988,17.9277108 4.04819277,17.9277108 L2.5060241,17.9277108 L3.8939759,16.0771084 L2.66024096,15.1518072 L0,18.6987952 L2.66024096,22.2457831 L3.8939759,21.3204819 L2.5060241,19.4698795 L4.04819277,19.4698795 C5.74920482,19.4698795 7.13253012,18.0865542 7.13253012,16.3855422 Z" id="Shape"></path>
                            <rect id="Rectangle-path" x="12.5301205" y="22.5542169" width="1.54216867" height="2.31325301"></rect>
                            <rect id="Rectangle-path" x="12.5301205" y="27.1807229" width="1.54216867" height="2.31325301"></rect>
                            <rect id="Rectangle-path" x="12.5301205" y="13.3012048" width="1.54216867" height="2.31325301"></rect>
                            <rect id="Rectangle-path" x="12.5301205" y="17.9277108" width="1.54216867" height="2.31325301"></rect>
                            <rect id="Rectangle-path" x="12.5301205" y="4.04819277" width="1.54216867" height="2.31325301"></rect>
                            <polygon id="Shape" points="13.3012048 1.92771084 15.9228916 3.8939759 16.8481928 2.66024096 13.3012048 0 9.75421687 2.66024096 10.6795181 3.8939759"></polygon>
                        </g>
                    </g>
                </g>
            </g>
        </g>
    </g>
</svg>