<?xml version="1.0" encoding="UTF-8"?>
<svg width="48px" height="48px" viewBox="0 0 48 48" version="1.1" xmlns="http://www.w3.org/2000/svg" xmlns:xlink="http://www.w3.org/1999/xlink">
    <!-- Generator: Sketch 50.2 (55047) - http://www.bohemiancoding.com/sketch -->
    <title>QA</title>
    <desc>Created with Sketch.</desc>
    <defs></defs>
    <g id="Page-1" stroke="none" stroke-width="1" fill="none" fill-rule="evenodd">
        <g id="Landing" transform="translate(-1275.000000, -1236.000000)" fill-rule="nonzero">
            <g id="block-2" transform="translate(0.000000, 899.000000)">
                <g id="block-4" transform="translate(1275.000000, 331.000000)">
                    <g id="QA" transform="translate(0.000000, 6.000000)">
                        <g id="Group" transform="translate(4.645161, 14.709677)" fill="#D6A64B">
                            <circle id="Oval" cx="7.74193548" cy="7.74193548" r="7.74193548"></circle>
                            <rect id="Rectangle-path" x="24.7741935" y="0.774193548" width="17.0322581" height="7.74193548"></rect>
                        </g>
                        <g id="Group" transform="translate(32.516129, 5.419355)" fill="#D6A64B">
                            <rect id="Rectangle-path" x="0" y="3.09677419" width="1.5483871" height="4.64516129"></rect>
                            <rect id="Rectangle-path" x="3.09677419" y="1.5483871" width="1.5483871" height="6.19354839"></rect>
                            <rect id="Rectangle-path" x="6.19354839" y="0" width="1.5483871" height="7.74193548"></rect>
                            <rect id="Rectangle-path" x="9.29032258" y="1.5483871" width="1.5483871" height="6.19354839"></rect>
                        </g>
                        <g id="Group" fill="#3F3A34">
                            <path d="M0,39.483871 C0,41.6183226 1.73651613,43.3548387 3.87096774,43.3548387 L13.9354839,43.3548387 L13.9354839,46.4516129 L10.8387097,46.4516129 L10.8387097,48 L32.516129,48 L32.516129,46.4516129 L29.4193548,46.4516129 L29.4193548,43.3548387 L39.483871,43.3548387 C41.6183226,43.3548387 43.3548387,41.6183226 43.3548387,39.483871 L43.3548387,37.1612903 L0,37.1612903 L0,39.483871 Z M27.8709677,46.4516129 L15.483871,46.4516129 L15.483871,43.3548387 L27.8709677,43.3548387 L27.8709677,46.4516129 Z M1.5483871,38.7096774 L41.8064516,38.7096774 L41.8064516,39.483871 C41.8064516,40.7643871 40.7643871,41.8064516 39.483871,41.8064516 L3.87096774,41.8064516 C2.59045161,41.8064516 1.5483871,40.7643871 1.5483871,39.483871 L1.5483871,38.7096774 Z" id="Shape"></path>
                            <path d="M1.5483871,13.1612903 C1.5483871,11.8807742 2.59045161,10.8387097 3.87096774,10.8387097 L26.3225806,10.8387097 L26.3225806,9.29032258 L3.87096774,9.29032258 C1.73651613,9.29032258 0,11.0268387 0,13.1612903 L0,35.6129032 L1.5483871,35.6129032 L1.5483871,13.1612903 Z" id="Shape"></path>
                            <rect id="Rectangle-path" x="41.8064516" y="30.9677419" width="1.5483871" height="4.64516129"></rect>
                            <path d="M27.8709677,27.0967742 C27.8709677,28.3772903 28.9130323,29.4193548 30.1935484,29.4193548 L45.6774194,29.4193548 C46.9579355,29.4193548 48,28.3772903 48,27.0967742 L48,23.2258065 L27.8709677,23.2258065 L27.8709677,27.0967742 Z M29.4193548,24.7741935 L46.4516129,24.7741935 L46.4516129,27.0967742 C46.4516129,27.524129 46.104,27.8709677 45.6774194,27.8709677 L30.1935484,27.8709677 C29.7669677,27.8709677 29.4193548,27.524129 29.4193548,27.0967742 L29.4193548,24.7741935 Z" id="Shape"></path>
                            <rect id="Rectangle-path" x="30.9677419" y="12.3870968" width="13.9354839" height="1.5483871"></rect>
                            <path d="M45.6774194,0 L30.1935484,0 C28.9130323,0 27.8709677,1.04206452 27.8709677,2.32258065 L27.8709677,13.9354839 L22.9602581,13.9354839 L18.9553548,17.0508387 C17.3295484,15.0727742 14.9628387,13.9354839 12.3870968,13.9354839 C7.6916129,13.9354839 3.87096774,17.756129 3.87096774,22.4516129 C3.87096774,27.1470968 7.6916129,30.9677419 12.3870968,30.9677419 C17.0825806,30.9677419 20.9032258,27.1470968 20.9032258,22.4516129 C20.9032258,21.579871 20.7723871,20.7205161 20.5130323,19.8967742 L19.035871,20.3612903 C19.2472258,21.0340645 19.3548387,21.7378065 19.3548387,22.4516129 C19.3548387,23.7406452 18.9963871,24.9452903 18.384,25.9819355 L13.0807742,22.004129 L11.6407742,15.5256774 C11.8861935,15.4993548 12.1347097,15.483871 12.3870968,15.483871 C14.4805161,15.483871 16.4043871,16.4028387 17.7336774,18.0007742 L15.7834839,19.5181935 L16.7341935,20.739871 L23.4913548,15.483871 L27.8709677,15.483871 L27.8709677,21.6774194 L29.4193548,21.6774194 L29.4193548,2.32258065 C29.4193548,1.89522581 29.7669677,1.5483871 30.1935484,1.5483871 L45.6774194,1.5483871 C46.104,1.5483871 46.4516129,1.89522581 46.4516129,2.32258065 L46.4516129,21.6774194 L48,21.6774194 L48,2.32258065 C48,1.04206452 46.9579355,0 45.6774194,0 Z M17.4541935,27.219871 C16.1821935,28.5700645 14.3837419,29.4193548 12.3870968,29.4193548 C11.4356129,29.4193548 10.5282581,29.2265806 9.70141935,28.8797419 L12.6325161,23.6036129 L17.4541935,27.219871 Z M11.5672258,22.3331613 L8.35122581,28.1218065 C6.58064516,26.8567742 5.41935484,24.7896774 5.41935484,22.4516129 C5.41935484,19.3997419 7.39432258,16.8069677 10.1303226,15.8663226 L11.5672258,22.3331613 Z" id="Shape"></path>
                            <rect id="Rectangle-path" x="30.9677419" y="15.483871" width="1.5483871" height="1.5483871"></rect>
                            <rect id="Rectangle-path" x="43.3548387" y="15.483871" width="1.5483871" height="1.5483871"></rect>
                            <rect id="Rectangle-path" x="34.0645161" y="15.483871" width="7.74193548" height="1.5483871"></rect>
                            <rect id="Rectangle-path" x="3.09677419" y="34.0645161" width="37.1612903" height="1.5483871"></rect>
                        </g>
                    </g>
                </g>
            </g>
        </g>
    </g>
</svg>