<?xml version="1.0" encoding="UTF-8"?>
<svg width="40px" height="40px" viewBox="0 0 40 40" version="1.1" xmlns="http://www.w3.org/2000/svg" xmlns:xlink="http://www.w3.org/1999/xlink">
    <!-- Generator: Sketch 50.2 (55047) - http://www.bohemiancoding.com/sketch -->
    <title>linkedin</title>
    <desc>Created with Sketch.</desc>
    <defs></defs>
    <g id="Page-1" stroke="none" stroke-width="1" fill="none" fill-rule="evenodd">
        <g id="styleguide" transform="translate(-707.000000, -864.000000)">
            <g id="buttons" transform="translate(156.000000, 667.000000)">
                <g id="icons-copy" transform="translate(331.000000, 197.000000)">
                    <g id="linkedin" transform="translate(220.000000, 0.000000)">
                        <rect id="Rectangle" fill="#2E77B0" x="0" y="0" width="40" height="40" rx="3"></rect>
                        <g id="Group-9" transform="translate(8.000000, 8.000000)" fill="#FFFFFF" fill-rule="nonzero">
                            <rect id="Rectangle-path" x="0" y="7.5" width="5.367" height="16.5"></rect>
                            <path d="M19.986,7.6935 C19.929,7.6755 19.875,7.656 19.815,7.6395 C19.743,7.623 19.671,7.6095 19.5975,7.5975 C19.3125,7.5405 19.0005,7.5 18.6345,7.5 C15.5055,7.5 13.521,9.7755 12.867,10.6545 L12.867,7.5 L7.5,7.5 L7.5,24 L12.867,24 L12.867,15 C12.867,15 16.923,9.351 18.6345,13.5 C18.6345,17.2035 18.6345,24 18.6345,24 L24,24 L24,12.8655 C24,10.3725 22.2915,8.295 19.986,7.6935 Z" id="Shape"></path>
                            <circle id="Oval" cx="2.625" cy="2.625" r="2.625"></circle>
                        </g>
                    </g>
                </g>
            </g>
        </g>
    </g>
</svg>